<?xml version="1.0" encoding="utf-8"?>
<!-- Generator: Adobe Illustrator 21.1.0, SVG Export Plug-In . SVG Version: 6.00 Build 0)  -->
<svg version="1.1" id="Layer_1" xmlns="http://www.w3.org/2000/svg" xmlns:xlink="http://www.w3.org/1999/xlink" x="0px" y="0px"
	 viewBox="0 0 300 100" style="enable-background:new 0 0 300 100;" xml:space="preserve">
<style type="text/css">
	.st0{clip-path:url(#SVGID_2_);}
	.st1{clip-path:url(#SVGID_4_);fill:url(#SVGID_5_);}
	.st2{clip-path:url(#SVGID_7_);fill:url(#SVGID_8_);}
	.st3{clip-path:url(#SVGID_10_);fill:url(#SVGID_11_);}
	.st4{clip-path:url(#SVGID_13_);fill:url(#SVGID_14_);}
	.st5{clip-path:url(#SVGID_16_);fill:url(#SVGID_17_);}
	.st6{clip-path:url(#SVGID_19_);fill:url(#SVGID_20_);}
	.st7{clip-path:url(#SVGID_22_);fill:url(#SVGID_23_);}
	.st8{clip-path:url(#SVGID_25_);fill:url(#SVGID_26_);}
	.st9{clip-path:url(#SVGID_28_);fill:url(#SVGID_29_);}
	.st10{clip-path:url(#SVGID_31_);fill:url(#SVGID_32_);}
	.st11{clip-path:url(#SVGID_34_);fill:url(#SVGID_35_);}
	.st12{clip-path:url(#SVGID_37_);fill:url(#SVGID_38_);}
	.st13{clip-path:url(#SVGID_40_);fill:url(#SVGID_41_);}
	.st14{clip-path:url(#SVGID_43_);fill:url(#SVGID_44_);}
</style>
<g id="Artwork_2">
	<g>
		<defs>
			<rect id="SVGID_1_" x="3.3" y="9.8" width="293.4" height="80.4"/>
		</defs>
		<clipPath id="SVGID_2_">
			<use xlink:href="#SVGID_1_"  style="overflow:visible;"/>
		</clipPath>
		<g class="st0">
			<defs>
				<polygon id="SVGID_3_" points="3.6,24 3.6,88.9 13.7,88.9 13.7,60 28.3,60 28.3,50.7 13.7,50.7 13.7,33.2 33.3,33.2 33.3,24 
									"/>
			</defs>
			<clipPath id="SVGID_4_">
				<use xlink:href="#SVGID_3_"  style="overflow:visible;"/>
			</clipPath>
			
				<linearGradient id="SVGID_5_" gradientUnits="userSpaceOnUse" x1="-0.9374" y1="4.312230e-02" x2="-0.2673" y2="4.312230e-02" gradientTransform="matrix(0 -96.9123 -96.9123 0 22.6576 -1.9521)">
				<stop  offset="0" style="stop-color:#D34F23"/>
				<stop  offset="1" style="stop-color:#EB6F44"/>
			</linearGradient>
			<rect x="3.6" y="24" class="st1" width="29.7" height="64.9"/>
		</g>
		<g class="st0">
			<defs>
				<rect id="SVGID_6_" x="3.3" y="9.8" width="293.4" height="80.4"/>
			</defs>
			<clipPath id="SVGID_7_">
				<use xlink:href="#SVGID_6_"  style="overflow:visible;"/>
			</clipPath>
			
				<linearGradient id="SVGID_8_" gradientUnits="userSpaceOnUse" x1="1.2561" y1="-4.267994e-02" x2="1.9262" y2="-4.267994e-02" gradientTransform="matrix(5.995400e-15 97.9123 97.9123 -5.995400e-15 22.6576 -99.3644)">
				<stop  offset="0" style="stop-color:#EB6F44"/>
				<stop  offset="1" style="stop-color:#D34F23"/>
			</linearGradient>
			<polygon class="st2" points="13.7,88.9 13.7,88.9 3.6,88.9 3.6,24 33.3,24 33.3,33.2 13.7,33.2 13.7,50.7 28.3,50.7 28.3,60 
				13.7,60 13.7,88.9 13.7,88.9 13.7,88.9 13.7,60 28.3,60 28.3,50.7 13.7,50.7 13.7,33.2 33.3,33.2 33.3,24 3.6,24 3.6,88.9 
				13.7,88.9 			"/>
		</g>
		<g class="st0">
			<defs>
				<path id="SVGID_9_" d="M50.9,76.9c-1-1.9-1.3-3.7-1.3-8.9V44.8c0-5.2,0.3-6.9,1.3-8.9c1.2-2.1,3.6-3.5,6.4-3.5
					c2.8,0,5.3,1.4,6.4,3.5c1.1,2,1.3,3.6,1.3,8.9v23.3c0,5.3-0.2,6.8-1.3,8.9c-1.2,2.1-3.6,3.5-6.4,3.5
					C54.5,80.4,52,79.1,50.9,76.9 M43.3,29.2c-2.6,3.7-3.7,8.1-3.7,15.4v23.7c0,7.3,1.1,11.7,3.7,15.4c2.9,4.1,7.8,6.2,14,6.2
					c6.2,0,11.1-2.1,14-6.2c2.6-3.7,3.7-8.1,3.7-15.4V44.6c0-7.3-1.1-11.7-3.7-15.4c-2.9-4.1-7.8-6.2-14-6.2
					C51,23,46.2,25.1,43.3,29.2 M45.6,18.8h8.5v-8.7h-8.5V18.8z M60.5,18.8H69v-8.7h-8.5V18.8z"/>
			</defs>
			<clipPath id="SVGID_10_">
				<use xlink:href="#SVGID_9_"  style="overflow:visible;"/>
			</clipPath>
			
				<linearGradient id="SVGID_11_" gradientUnits="userSpaceOnUse" x1="-0.7595" y1="0.1956" x2="-8.932129e-02" y2="0.1956" gradientTransform="matrix(0 -118.996 -118.996 0 80.5557 -0.5)">
				<stop  offset="0" style="stop-color:#D34F23"/>
				<stop  offset="1" style="stop-color:#EB6F44"/>
			</linearGradient>
			<rect x="39.6" y="10.1" class="st3" width="35.4" height="79.7"/>
		</g>
		<g class="st0">
			<defs>
				<rect id="SVGID_12_" x="3.3" y="9.8" width="293.4" height="80.4"/>
			</defs>
			<clipPath id="SVGID_13_">
				<use xlink:href="#SVGID_12_"  style="overflow:visible;"/>
			</clipPath>
			
				<linearGradient id="SVGID_14_" gradientUnits="userSpaceOnUse" x1="1.0816" y1="-0.194" x2="1.7517" y2="-0.194" gradientTransform="matrix(7.347640e-15 119.996 119.996 -7.347640e-15 80.5557 -119.996)">
				<stop  offset="0" style="stop-color:#EB6F44"/>
				<stop  offset="1" style="stop-color:#D34F23"/>
			</linearGradient>
			<path class="st4" d="M75,68.3L75,68.3c0,7.3-1.1,11.7-3.7,15.4c-2.9,4.1-7.8,6.2-14,6.2c-6.2,0-11.1-2.1-14-6.2
				c-2.6-3.7-3.7-8.1-3.7-15.4V44.6c0-7.3,1.1-11.7,3.7-15.4c2.9-4.1,7.8-6.2,14-6.2s11.1,2.1,14,6.2c2.6,3.7,3.7,8.1,3.7,15.4V68.3
				L75,68.3L75,68.3V44.6c0-7.3-1.1-11.7-3.7-15.4c-2.9-4.1-7.8-6.2-14-6.2c-6.2,0-11.1,2.1-14,6.2c-2.6,3.7-3.7,8.1-3.7,15.4v23.7
				c0,7.3,1.1,11.7,3.7,15.4c2.9,4.1,7.8,6.2,14,6.2s11.1-2.1,14-6.2C73.9,79.9,75,75.6,75,68.3L75,68.3z M54.1,18.8L54.1,18.8h-8.5
				v-8.7h8.5V18.8L54.1,18.8L54.1,18.8v-8.7h-8.5v8.7H54.1L54.1,18.8z M49.6,68.1L49.6,68.1c0,5.2,0.3,6.9,1.3,8.9
				c1.2,2.1,3.6,3.5,6.4,3.5c2.8,0,5.3-1.4,6.4-3.5c1.1-2,1.3-3.6,1.3-8.9V44.8c0-5.3-0.2-6.8-1.3-8.9c-1.2-2.1-3.6-3.5-6.4-3.5
				c-2.8,0-5.3,1.4-6.4,3.5c-1,1.9-1.3,3.7-1.3,8.9V68.1L49.6,68.1L49.6,68.1V44.8c0-5.2,0.3-6.9,1.3-8.9c1.2-2.1,3.6-3.5,6.4-3.5
				c2.8,0,5.3,1.4,6.4,3.5c1.1,2,1.3,3.6,1.3,8.9v23.3c0,5.3-0.2,6.8-1.3,8.9c-1.2,2.1-3.6,3.5-6.4,3.5c-2.8,0-5.3-1.4-6.4-3.5
				C49.9,75,49.6,73.2,49.6,68.1L49.6,68.1z M69,18.8L69,18.8h-8.5v-8.7H69V18.8L69,18.8L69,18.8v-8.7h-8.5v8.7H69L69,18.8z"/>
		</g>
		<g class="st0">
			<defs>
				<path id="SVGID_15_" d="M94.3,33.2H98c4.3,0,6.2,0.5,7.8,2c1.7,1.7,2.4,4.3,2.4,7.8c0,3.6-0.8,6.2-2.4,7.9c-1.6,1.6-3.5,2-7.8,2
					h-3.7V33.2z M84.2,24v64.9h10V62.2h6l8.6,26.7h10.5l-9.5-29.5c5.8-3,8.8-8.7,8.8-16.8c0-6.4-1.9-11.4-5.8-14.7
					c-3.1-2.7-6.9-3.9-12.9-3.9H84.2z"/>
			</defs>
			<clipPath id="SVGID_16_">
				<use xlink:href="#SVGID_15_"  style="overflow:visible;"/>
			</clipPath>
			
				<linearGradient id="SVGID_17_" gradientUnits="userSpaceOnUse" x1="-0.9374" y1="0.4665" x2="-0.2673" y2="0.4665" gradientTransform="matrix(0 -96.9123 -96.9123 0 147.0309 -1.9521)">
				<stop  offset="0" style="stop-color:#D34F23"/>
				<stop  offset="1" style="stop-color:#EB6F44"/>
			</linearGradient>
			<rect x="84.2" y="24" class="st5" width="35.1" height="64.9"/>
		</g>
		<g class="st0">
			<defs>
				<rect id="SVGID_18_" x="3.3" y="9.8" width="293.4" height="80.4"/>
			</defs>
			<clipPath id="SVGID_19_">
				<use xlink:href="#SVGID_18_"  style="overflow:visible;"/>
			</clipPath>
			
				<linearGradient id="SVGID_20_" gradientUnits="userSpaceOnUse" x1="1.2561" y1="-0.4627" x2="1.9262" y2="-0.4627" gradientTransform="matrix(5.995400e-15 97.9123 97.9123 -5.995400e-15 147.124 -99.3644)">
				<stop  offset="0" style="stop-color:#EB6F44"/>
				<stop  offset="1" style="stop-color:#D34F23"/>
			</linearGradient>
			<path class="st6" d="M94.3,88.9L94.3,88.9h-10V24l15.7,0c5.9,0,9.7,1.2,12.9,3.9c3.9,3.3,5.8,8.3,5.8,14.7
				c0,8.2-2.9,13.8-8.8,16.8l9.5,29.5h-10.5l-8.6-26.7h-6V88.9L94.3,88.9L94.3,88.9V62.2h6l8.6,26.7h10.5l-9.5-29.5
				c5.8-3,8.8-8.7,8.8-16.8c0-6.4-1.9-11.4-5.8-14.7c-3.1-2.7-6.9-3.9-12.9-3.9H84.2v64.9H94.3L94.3,88.9z M98,53L98,53
				c4.3,0,6.2-0.5,7.8-2c1.7-1.7,2.4-4.3,2.4-7.9c0-3.5-0.8-6.1-2.4-7.8c-1.6-1.6-3.5-2-7.8-2h-3.7V53H98L98,53L98,53h-3.7V33.2H98
				c4.3,0,6.2,0.5,7.8,2c1.7,1.7,2.4,4.3,2.4,7.8c0,3.6-0.8,6.2-2.4,7.9C104.2,52.5,102.3,53,98,53L98,53z"/>
		</g>
		<g class="st0">
			<defs>
				<polygon id="SVGID_21_" points="154.6,24 154.6,50.8 140.1,24 129.3,24 143.1,47.5 127.4,88.9 138.4,88.9 149.3,58.2 
					154.6,67.3 154.6,88.9 164.7,88.9 164.7,24 				"/>
			</defs>
			<clipPath id="SVGID_22_">
				<use xlink:href="#SVGID_21_"  style="overflow:visible;"/>
			</clipPath>
			
				<linearGradient id="SVGID_23_" gradientUnits="userSpaceOnUse" x1="-0.9374" y1="0.691" x2="-0.2673" y2="0.691" gradientTransform="matrix(0 -96.9123 -96.9123 0 212.9975 -1.9521)">
				<stop  offset="0" style="stop-color:#D34F23"/>
				<stop  offset="1" style="stop-color:#EB6F44"/>
			</linearGradient>
			<rect x="127.4" y="24" class="st7" width="37.3" height="64.9"/>
		</g>
		<g class="st0">
			<defs>
				<rect id="SVGID_24_" x="3.3" y="9.8" width="293.4" height="80.4"/>
			</defs>
			<clipPath id="SVGID_25_">
				<use xlink:href="#SVGID_24_"  style="overflow:visible;"/>
			</clipPath>
			
				<linearGradient id="SVGID_26_" gradientUnits="userSpaceOnUse" x1="1.2561" y1="-0.6828" x2="1.9262" y2="-0.6828" gradientTransform="matrix(5.995400e-15 97.9123 97.9123 -5.995400e-15 212.885 -99.3644)">
				<stop  offset="0" style="stop-color:#EB6F44"/>
				<stop  offset="1" style="stop-color:#D34F23"/>
			</linearGradient>
			<polygon class="st8" points="154.6,24 154.6,24 164.7,24 164.7,88.9 154.6,88.9 154.6,67.3 149.3,58.2 138.4,88.9 127.4,88.9 
				143.1,47.5 129.3,24 140.1,24 154.6,50.8 154.6,24 154.6,24 154.6,24 154.6,50.8 140.1,24 129.3,24 143.1,47.5 127.4,88.9 
				138.4,88.9 149.3,58.2 154.6,67.3 154.6,88.9 164.7,88.9 164.7,24 154.6,24 			"/>
		</g>
		<g class="st0">
			<defs>
				<path id="SVGID_27_" d="M181.8,33.2h3.7c4.3,0,6.2,0.5,7.8,2c1.7,1.7,2.4,4.3,2.4,7.8c0,3.6-0.8,6.2-2.4,7.9
					c-1.6,1.6-3.5,2-7.8,2h-3.7V33.2z M171.8,24v64.9h10V62.2h6l8.6,26.7h10.5l-9.5-29.5c5.8-3,8.8-8.7,8.8-16.8
					c0-6.4-1.9-11.4-5.8-14.7c-3.1-2.7-6.9-3.9-12.9-3.9H171.8z"/>
			</defs>
			<clipPath id="SVGID_28_">
				<use xlink:href="#SVGID_27_"  style="overflow:visible;"/>
			</clipPath>
			
				<linearGradient id="SVGID_29_" gradientUnits="userSpaceOnUse" x1="-0.9374" y1="0.9111" x2="-0.2673" y2="0.9111" gradientTransform="matrix(0 -96.9123 -96.9123 0 277.6528 -1.9521)">
				<stop  offset="0" style="stop-color:#D34F23"/>
				<stop  offset="1" style="stop-color:#EB6F44"/>
			</linearGradient>
			<rect x="171.8" y="24" class="st9" width="35.1" height="64.9"/>
		</g>
		<g class="st0">
			<defs>
				<rect id="SVGID_30_" x="3.3" y="9.8" width="293.4" height="80.4"/>
			</defs>
			<clipPath id="SVGID_31_">
				<use xlink:href="#SVGID_30_"  style="overflow:visible;"/>
			</clipPath>
			
				<linearGradient id="SVGID_32_" gradientUnits="userSpaceOnUse" x1="1.2561" y1="-0.9027" x2="1.9262" y2="-0.9027" gradientTransform="matrix(5.995400e-15 97.9123 97.9123 -5.995400e-15 277.746 -99.3644)">
				<stop  offset="0" style="stop-color:#EB6F44"/>
				<stop  offset="1" style="stop-color:#D34F23"/>
			</linearGradient>
			<path class="st10" d="M181.8,88.9L181.8,88.9h-10V24l15.7,0c5.9,0,9.7,1.2,12.9,3.9c3.9,3.3,5.8,8.3,5.8,14.7
				c0,8.2-2.9,13.8-8.8,16.8l9.5,29.5h-10.5l-8.6-26.7h-6V88.9L181.8,88.9L181.8,88.9V62.2h6l8.6,26.7h10.5l-9.5-29.5
				c5.8-3,8.8-8.7,8.8-16.8c0-6.4-1.9-11.4-5.8-14.7c-3.1-2.7-6.9-3.9-12.9-3.9h-15.7v64.9H181.8L181.8,88.9z M185.5,53L185.5,53
				c4.3,0,6.2-0.5,7.8-2c1.7-1.7,2.4-4.3,2.4-7.9c0-3.5-0.8-6.1-2.4-7.8c-1.6-1.6-3.5-2-7.8-2h-3.7V53H185.5L185.5,53L185.5,53h-3.7
				V33.2h3.7c4.3,0,6.2,0.5,7.8,2c1.7,1.7,2.4,4.3,2.4,7.8c0,3.6-0.8,6.2-2.4,7.9C191.7,52.5,189.8,53,185.5,53L185.5,53z"/>
		</g>
		<g class="st0">
			<defs>
				<path id="SVGID_33_" d="M225.5,76.9c-1-1.9-1.3-3.7-1.3-8.9V44.8c0-5.2,0.3-6.9,1.3-8.9c1.2-2.1,3.6-3.5,6.4-3.5
					c2.8,0,5.3,1.4,6.4,3.5c1.1,2,1.3,3.6,1.3,8.9v23.3c0,5.3-0.2,6.8-1.3,8.9c-1.2,2.1-3.6,3.5-6.4,3.5
					C229.1,80.4,226.7,79.1,225.5,76.9 M217.9,29.2c-2.6,3.7-3.7,8.1-3.7,15.4v23.7c0,7.3,1.1,11.7,3.7,15.4c2.9,4.1,7.8,6.2,14,6.2
					c6.2,0,11.1-2.1,14-6.2c2.6-3.7,3.7-8.1,3.7-15.4V44.6c0-7.3-1.1-11.7-3.7-15.4c-2.9-4.1-7.8-6.2-14-6.2
					C225.7,23,220.9,25.1,217.9,29.2 M220.3,18.8h8.5v-8.7h-8.5V18.8z M235.2,18.8h8.5v-8.7h-8.5V18.8z"/>
			</defs>
			<clipPath id="SVGID_34_">
				<use xlink:href="#SVGID_33_"  style="overflow:visible;"/>
			</clipPath>
			
				<linearGradient id="SVGID_35_" gradientUnits="userSpaceOnUse" x1="-0.7595" y1="0.9182" x2="-8.932129e-02" y2="0.9182" gradientTransform="matrix(0 -118.996 -118.996 0 341.2221 -0.5)">
				<stop  offset="0" style="stop-color:#D34F23"/>
				<stop  offset="1" style="stop-color:#EB6F44"/>
			</linearGradient>
			<rect x="214.2" y="10.1" class="st11" width="35.4" height="79.7"/>
		</g>
		<g class="st0">
			<defs>
				<rect id="SVGID_36_" x="3.3" y="9.8" width="293.4" height="80.4"/>
			</defs>
			<clipPath id="SVGID_37_">
				<use xlink:href="#SVGID_36_"  style="overflow:visible;"/>
			</clipPath>
			
				<linearGradient id="SVGID_38_" gradientUnits="userSpaceOnUse" x1="1.0816" y1="-0.9106" x2="1.7517" y2="-0.9106" gradientTransform="matrix(7.347640e-15 119.996 119.996 -7.347640e-15 341.222 -119.996)">
				<stop  offset="0" style="stop-color:#EB6F44"/>
				<stop  offset="1" style="stop-color:#D34F23"/>
			</linearGradient>
			<path class="st12" d="M249.7,68.3L249.7,68.3c0,7.3-1.1,11.7-3.7,15.4c-2.9,4.1-7.8,6.2-14,6.2c-6.2,0-11.1-2.1-14-6.2
				c-2.6-3.7-3.7-8.1-3.7-15.4V44.6c0-7.3,1.1-11.7,3.7-15.4c2.9-4.1,7.8-6.2,14-6.2c6.2,0,11.1,2.1,14,6.2
				c2.6,3.7,3.7,8.1,3.7,15.4V68.3L249.7,68.3L249.7,68.3V44.6c0-7.3-1.1-11.7-3.7-15.4c-2.9-4.1-7.8-6.2-14-6.2
				c-6.2,0-11.1,2.1-14,6.2c-2.6,3.7-3.7,8.1-3.7,15.4v23.7c0,7.3,1.1,11.7,3.7,15.4c2.9,4.1,7.8,6.2,14,6.2c6.2,0,11.1-2.1,14-6.2
				C248.6,79.9,249.7,75.6,249.7,68.3L249.7,68.3z M228.7,18.8L228.7,18.8h-8.5v-8.7h8.5V18.8L228.7,18.8L228.7,18.8v-8.7h-8.5v8.7
				H228.7L228.7,18.8z M224.3,68.1L224.3,68.1c0,5.2,0.3,6.9,1.3,8.9c1.2,2.1,3.6,3.5,6.4,3.5c2.8,0,5.3-1.4,6.4-3.5
				c1.1-2,1.3-3.6,1.3-8.9V44.8c0-5.3-0.2-6.8-1.3-8.9c-1.2-2.1-3.6-3.5-6.4-3.5c-2.8,0-5.3,1.4-6.4,3.5c-1,1.9-1.3,3.7-1.3,8.9
				V68.1L224.3,68.1L224.3,68.1V44.8c0-5.2,0.3-6.9,1.3-8.9c1.2-2.1,3.6-3.5,6.4-3.5c2.8,0,5.3,1.4,6.4,3.5c1.1,2,1.3,3.6,1.3,8.9
				v23.3c0,5.3-0.2,6.8-1.3,8.9c-1.2,2.1-3.6,3.5-6.4,3.5c-2.8,0-5.3-1.4-6.4-3.5C224.6,75,224.3,73.2,224.3,68.1L224.3,68.1z
				 M243.6,18.8L243.6,18.8h-8.5v-8.7h8.5V18.8L243.6,18.8L243.6,18.8v-8.7h-8.5v8.7H243.6L243.6,18.8z"/>
		</g>
		<g class="st0">
			<defs>
				<polygon id="SVGID_39_" points="283.5,24 269,50.8 269,24 258.9,24 258.9,88.9 269,88.9 269,67.3 274.3,58.2 285.2,88.9 
					296.2,88.9 280.5,47.5 294.3,24 				"/>
			</defs>
			<clipPath id="SVGID_40_">
				<use xlink:href="#SVGID_39_"  style="overflow:visible;"/>
			</clipPath>
			
				<linearGradient id="SVGID_41_" gradientUnits="userSpaceOnUse" x1="-0.9374" y1="1.3592" x2="-0.2673" y2="1.3592" gradientTransform="matrix(0 -96.9123 -96.9123 0 409.2947 -1.9521)">
				<stop  offset="0" style="stop-color:#D34F23"/>
				<stop  offset="1" style="stop-color:#EB6F44"/>
			</linearGradient>
			<rect x="258.9" y="24" class="st13" width="37.3" height="64.9"/>
		</g>
		<g class="st0">
			<defs>
				<rect id="SVGID_42_" x="3.3" y="9.8" width="293.4" height="80.4"/>
			</defs>
			<clipPath id="SVGID_43_">
				<use xlink:href="#SVGID_42_"  style="overflow:visible;"/>
			</clipPath>
			
				<linearGradient id="SVGID_44_" gradientUnits="userSpaceOnUse" x1="1.2561" y1="-1.3464" x2="1.9262" y2="-1.3464" gradientTransform="matrix(5.995400e-15 97.9123 97.9123 -5.995400e-15 409.407 -99.3644)">
				<stop  offset="0" style="stop-color:#EB6F44"/>
				<stop  offset="1" style="stop-color:#D34F23"/>
			</linearGradient>
			<polygon class="st14" points="269,50.8 269,50.8 283.5,24 294.3,24 280.5,47.5 296.2,88.9 285.2,88.9 274.3,58.2 269,67.3 
				269,88.9 258.9,88.9 258.9,24 269,24 269,50.8 269,50.8 269,50.8 269,24 258.9,24 258.9,88.9 269,88.9 269,67.3 274.3,58.2 
				285.2,88.9 296.2,88.9 280.5,47.5 294.3,24 283.5,24 269,50.8 			"/>
		</g>
	</g>
</g>
</svg>
