<?xml version="1.0" encoding="utf-8"?>
<!-- Generator: Adobe Illustrator 21.1.0, SVG Export Plug-In . SVG Version: 6.00 Build 0)  -->
<svg version="1.1" id="Layer_1" xmlns="http://www.w3.org/2000/svg" xmlns:xlink="http://www.w3.org/1999/xlink" x="0px" y="0px"
	 viewBox="0 0 300 300" style="enable-background:new 0 0 300 300;" xml:space="preserve">
<style type="text/css">
	.st0{clip-path:url(#SVGID_2_);}
	.st1{clip-path:url(#SVGID_4_);fill:#D34F23;}
	.st2{clip-path:url(#SVGID_4_);fill:#D45024;}
	.st3{clip-path:url(#SVGID_4_);fill:#D45125;}
	.st4{clip-path:url(#SVGID_4_);fill:#D55226;}
	.st5{clip-path:url(#SVGID_4_);fill:#D65227;}
	.st6{clip-path:url(#SVGID_4_);fill:#D75327;}
	.st7{clip-path:url(#SVGID_4_);fill:#D75429;}
	.st8{clip-path:url(#SVGID_4_);fill:#D8552A;}
	.st9{clip-path:url(#SVGID_4_);fill:#D9562B;}
	.st10{clip-path:url(#SVGID_4_);fill:#DA572C;}
	.st11{clip-path:url(#SVGID_4_);fill:#DB582D;}
	.st12{clip-path:url(#SVGID_4_);fill:#DB592D;}
	.st13{clip-path:url(#SVGID_4_);fill:#DD5A2F;}
	.st14{clip-path:url(#SVGID_4_);fill:#DD5B30;}
	.st15{clip-path:url(#SVGID_4_);fill:#DE5C31;}
	.st16{clip-path:url(#SVGID_4_);fill:#DF5C32;}
	.st17{clip-path:url(#SVGID_4_);fill:#E05F33;}
	.st18{clip-path:url(#SVGID_4_);fill:#E05F34;}
	.st19{clip-path:url(#SVGID_4_);fill:#E06035;}
	.st20{clip-path:url(#SVGID_4_);fill:#E16136;}
	.st21{clip-path:url(#SVGID_4_);fill:#E16237;}
	.st22{clip-path:url(#SVGID_4_);fill:#E26338;}
	.st23{clip-path:url(#SVGID_4_);fill:#E36439;}
	.st24{clip-path:url(#SVGID_4_);fill:#E4653A;}
	.st25{clip-path:url(#SVGID_4_);fill:#E4663B;}
	.st26{clip-path:url(#SVGID_4_);fill:#E5673C;}
	.st27{clip-path:url(#SVGID_4_);fill:#E6683D;}
	.st28{clip-path:url(#SVGID_4_);fill:#E6693E;}
	.st29{clip-path:url(#SVGID_4_);fill:#E76A3F;}
	.st30{clip-path:url(#SVGID_4_);fill:#E86B41;}
	.st31{clip-path:url(#SVGID_4_);fill:#EA6D42;}
	.st32{clip-path:url(#SVGID_4_);fill:#EA6E43;}
	.st33{clip-path:url(#SVGID_4_);fill:#EB6F45;}
	.st34{clip-path:url(#SVGID_6_);fill:#FFFFFF;}
	.st35{clip-path:url(#SVGID_6_);fill:#FDCD00;}
	.st36{clip-path:url(#SVGID_6_);fill:#E6BA02;}
	.st37{clip-path:url(#SVGID_6_);fill:#E6B104;}
	.st38{clip-path:url(#SVGID_6_);fill:#D7A701;}
</style>
<g id="Artwork_1">
	<g>
		<defs>
			<rect id="SVGID_1_" x="3.7" y="3.7" width="292.5" height="292.5"/>
		</defs>
		<clipPath id="SVGID_2_">
			<use xlink:href="#SVGID_1_"  style="overflow:visible;"/>
		</clipPath>
		<g class="st0">
			<defs>
				<circle id="SVGID_3_" cx="150" cy="150" r="146.3"/>
			</defs>
			<clipPath id="SVGID_4_">
				<use xlink:href="#SVGID_3_"  style="overflow:visible;"/>
			</clipPath>
			<path class="st1" d="M3.7,296.3h292.5H3.7z"/>
			<rect x="3.7" y="287.4" class="st1" width="292.5" height="8.9"/>
			<rect x="3.7" y="278.5" class="st2" width="292.5" height="8.9"/>
			<rect x="3.7" y="269.7" class="st3" width="292.5" height="8.9"/>
			<rect x="3.7" y="260.8" class="st4" width="292.5" height="8.9"/>
			<rect x="3.7" y="251.9" class="st5" width="292.5" height="8.9"/>
			<rect x="3.7" y="243.1" class="st6" width="292.5" height="8.9"/>
			<rect x="3.7" y="234.2" class="st7" width="292.5" height="8.9"/>
			<rect x="3.7" y="225.4" class="st8" width="292.5" height="8.9"/>
			<rect x="3.7" y="216.5" class="st9" width="292.5" height="8.9"/>
			<rect x="3.7" y="207.6" class="st10" width="292.5" height="8.9"/>
			<rect x="3.7" y="198.8" class="st11" width="292.5" height="8.9"/>
			<rect x="3.7" y="189.9" class="st12" width="292.5" height="8.9"/>
			<rect x="3.7" y="181" class="st13" width="292.5" height="8.9"/>
			<rect x="3.7" y="172.2" class="st14" width="292.5" height="8.9"/>
			<rect x="3.7" y="163.3" class="st15" width="292.5" height="8.9"/>
			<rect x="3.7" y="154.4" class="st16" width="292.5" height="8.9"/>
			<rect x="3.7" y="145.6" class="st17" width="292.5" height="8.9"/>
			<rect x="3.7" y="136.7" class="st18" width="292.5" height="8.9"/>
			<rect x="3.7" y="127.8" class="st19" width="292.5" height="8.9"/>
			<rect x="3.7" y="119" class="st20" width="292.5" height="8.9"/>
			<rect x="3.7" y="110.1" class="st21" width="292.5" height="8.9"/>
			<rect x="3.7" y="101.2" class="st22" width="292.5" height="8.9"/>
			<rect x="3.7" y="92.4" class="st23" width="292.5" height="8.9"/>
			<rect x="3.7" y="83.5" class="st24" width="292.5" height="8.9"/>
			<rect x="3.7" y="74.6" class="st25" width="292.5" height="8.9"/>
			<rect x="3.7" y="65.8" class="st26" width="292.5" height="8.9"/>
			<rect x="3.7" y="56.9" class="st27" width="292.5" height="8.9"/>
			<rect x="3.7" y="48.1" class="st28" width="292.5" height="8.9"/>
			<rect x="3.7" y="39.2" class="st29" width="292.5" height="8.9"/>
			<rect x="3.7" y="30.3" class="st30" width="292.5" height="8.9"/>
			<rect x="3.7" y="21.5" class="st31" width="292.5" height="8.9"/>
			<rect x="3.7" y="12.6" class="st32" width="292.5" height="8.9"/>
			<rect x="3.7" y="3.7" class="st33" width="292.5" height="8.9"/>
		</g>
		<g class="st0">
			<defs>
				<rect id="SVGID_5_" x="3.7" y="3.7" width="292.5" height="292.5"/>
			</defs>
			<clipPath id="SVGID_6_">
				<use xlink:href="#SVGID_5_"  style="overflow:visible;"/>
			</clipPath>
			<path class="st34" d="M156.8,145c-3.9,2.4-7.9,2.6-12.1,1.2c-3.9-1.3-6.8-4.1-8.4-7.7c-1.9-4.1-2-8.4,0-12.6
				c0.6-1.2,1.6-2.2,2.2-3.4c0.4-0.7,0.6-1.6,0.6-2.4c0-2-0.5-4.1-0.3-6.1c0.3-4.1,2.4-7.3,5.4-10c3.4-3,7.5-3.8,12-3.6
				c0.9,0,2-0.4,2.7-0.9c2.7-2.2,5.6-4,9.1-4.2c1.6-0.1,2.2-0.8,2.4-2.4c1.2-7.3,8.2-12.3,15.5-11.7c1.1,0.1,2.2,0.6,3.3,0.7
				c0.7,0.1,1.5-0.1,2-0.5c2-1.4,3.7-3.2,5.8-4.3c5.3-3,11-3.2,16.6-1.1c5.8,2.1,9.7,6.4,12.2,12c0.2,0.5,0.3,1.1,0.4,1.7
				c0.5,4.4,1.2,8.8,1.4,13.2c0.1,2.6-0.8,5.2-2.2,7.5c-1.8,3.1-3.3,6.4-5,9.6c-0.5,1-1.4,1.8-2.1,2.7c-2.2,2.5-5.1,3.9-8.2,4.9
				c-2.4,0.2-4.8,0.3-7.2,0.5c-1.4-0.5-2.9-0.7-4-1.5c-2.9-2.2-5.1-5-6.1-8.6c-0.1-0.4-0.8-1-1.2-0.9c-2.4,0.3-4.7,0.8-7,1.2
				c-3,0.4-6.1,0.9-9.1,1.3c-1.7,0.3-3.4,0.5-5,0.8c-5.6,0.9-11.2,1.8-16.9,2.7c0.1,0.7,0.2,1.3,0.3,1.9c1,5.4,2,10.9,2.9,16.3
				C156.8,142.6,156.8,143.8,156.8,145"/>
			<path class="st35" d="M210.1,127.7c3.1-1.1,5.9-2.5,8.2-4.9c5-0.8,10.1-2,15.1-2.4c6.3-0.5,11.7,3.4,12.7,9.7
				c2.1,12.3,4,24.7,5.9,37.1c1,6.2-3.6,12.3-9.8,13.3c-3.8,0.6-7.5,1.3-11.3,1.7c-1.7,0.2-2,0.8-1.7,2.4c0.7,4.1,1.4,8.2,1.9,12.3
				c0.2,1.3,0.7,2,1.9,2.6c1.5,0.7,2.9,1.7,4.4,2.5c1.5,0.8,1.8,2.1,1.8,3.6c0,0.3-0.3,0.8-0.6,1c-0.6,0.3-1.3,0.4-2,0.6
				c-10.3,1.6-20.6,3.3-31,4.9c-2.1,0.3-4.2,0.5-6.3,0.8c-5-31.4-10-62.9-14.9-94.3c2.3-0.4,4.7-0.9,7-1.2c0.4,0,1.1,0.5,1.2,0.9
				c1.1,3.6,3.2,6.4,6.1,8.6c1.1,0.8,2.7,1,4,1.5c3.4,21.7,6.9,43.4,10.3,65.1c0.1,0.5,0.1,1.1,0.3,1.6c0.6,2.2,1.9,3.4,3.4,3.4
				c2.6,0,4.1-1.8,3.7-4.4C217.1,171.9,213.6,149.8,210.1,127.7 M242.6,149.9c-0.6-3.8-1.2-7.5-1.8-11.3c-0.6-3.8-3-6.7-6.8-6.8
				c-4.1-0.1-8.2,0.8-12.3,1.3c-0.2,0-0.5,0.7-0.5,1c0.1,1.5,0.2,3,0.5,4.5c1.4,8.7,2.7,17.3,4.1,26c0.3,2.1,0.8,4.1,1.1,6.2
				c0.2,1.1,0.7,1.4,1.8,1.2c2.9-0.5,5.8-1,8.7-1.4c3.6-0.6,7.8-4.6,6.9-9.5C243.7,157.4,243.2,153.6,242.6,149.9 M195.1,162.8
				c1.8,11.3,3.6,22.6,5.4,33.9c0.1,0.5,0.1,1.1,0.3,1.6c0.6,1.8,1.9,2.4,3.9,2.1c1.8-0.3,2.8-1.4,2.8-3.2c0-1.1,0-2.3-0.2-3.4
				c-3.2-20.4-6.4-40.7-9.7-61.1c-0.3-2.2-0.9-4.4-1.4-6.5c-0.1-0.4-0.4-0.8-0.7-1.1c-1.1-1.1-2.9-1.3-4.3-0.6c-1.4,0.7-2,2-1.7,3.9
				C191.5,139.8,193.3,151.3,195.1,162.8"/>
			<path class="st36" d="M184.5,118.4c5,31.4,10,62.9,14.9,94.3c-12,1.9-23.9,3.8-35.9,5.7c-0.5,0.1-1.5-0.2-1.5-0.3
				c-0.1-1.1-0.4-2.4,0.1-3.3c1.1-1.8,2.7-3.2,4-4.9c0.5-0.6,0.9-1.6,0.8-2.3c-3.2-20.7-6.5-41.5-9.8-62.2c0-0.2-0.1-0.3-0.1-0.5
				c-0.1-1.2,0-2.4-0.2-3.5c-0.9-5.5-1.9-10.9-2.9-16.3c-0.1-0.6-0.2-1.2-0.3-1.9c5.7-0.9,11.3-1.8,16.9-2.7c1.7-0.3,3.4-0.5,5-0.8
				C178.4,119.3,181.4,118.9,184.5,118.4 M189,163.9c-0.6-3.6-1.1-7.2-1.7-10.8c-1.3-7.9-2.5-15.8-3.8-23.7
				c-0.3-2.2-1.4-3.2-3.2-3.2c-2.7-0.1-4.3,2-3.8,4.9c3.6,22.6,7.2,45.2,10.7,67.8c0.4,2.8,1.9,4,4.4,3.6c2.3-0.4,3.2-1.8,2.7-4.6
				C192.6,186.4,190.8,175.1,189,163.9 M175.8,165.9c-1.8-11.6-3.7-23.1-5.5-34.7c-0.4-2.2-1.7-3.3-3.8-2.9
				c-2.5,0.4-3.3,1.6-2.9,4.5c3.6,22.5,7.1,44.9,10.7,67.4c0.1,0.6,0.1,1.2,0.3,1.8c0.3,0.8,0.7,1.8,1.3,2.1c1.3,0.6,2.7,0.8,4-0.1
				c1.3-0.9,1.6-2.1,1.3-3.7C179.4,188.8,177.6,177.4,175.8,165.9"/>
			<path class="st37" d="M210.1,127.7c3.5,22.1,7,44.2,10.5,66.3c0.4,2.6-1.1,4.3-3.7,4.4c-1.6,0-2.8-1.2-3.4-3.4
				c-0.1-0.5-0.2-1.1-0.3-1.6c-3.4-21.7-6.9-43.4-10.3-65.1C205.3,128,207.7,127.9,210.1,127.7"/>
			<path class="st35" d="M175.3,119.8c-1.7,0.3-3.4,0.5-5,0.8C172,120.3,173.6,120,175.3,119.8"/>
			<path class="st37" d="M195.1,162.8c-1.8-11.5-3.6-23-5.5-34.5c-0.3-1.9,0.3-3.2,1.7-3.9c1.3-0.7,3.1-0.5,4.3,0.6
				c0.3,0.3,0.6,0.7,0.7,1.1c0.5,2.2,1,4.3,1.4,6.5c3.2,20.4,6.5,40.7,9.7,61.1c0.2,1.1,0.2,2.3,0.2,3.4c0,1.8-1,2.9-2.8,3.2
				c-2,0.3-3.3-0.3-3.9-2.1c-0.2-0.5-0.2-1.1-0.3-1.6C198.7,185.4,196.9,174.1,195.1,162.8"/>
			<path class="st38" d="M189,163.9c1.8,11.3,3.6,22.6,5.4,33.9c0.4,2.8-0.4,4.3-2.7,4.6c-2.4,0.4-4-0.8-4.4-3.6
				c-3.6-22.6-7.2-45.2-10.7-67.8c-0.5-2.9,1.1-5,3.8-4.9c1.8,0,2.9,1.1,3.2,3.2c1.3,7.9,2.5,15.8,3.8,23.7
				C187.9,156.6,188.4,160.3,189,163.9"/>
			<path class="st38" d="M175.8,165.9c1.8,11.4,3.6,22.9,5.5,34.3c0.3,1.6,0,2.8-1.3,3.7c-1.3,0.9-2.8,0.7-4,0.1
				c-0.6-0.3-1-1.4-1.3-2.1c-0.2-0.5-0.2-1.2-0.3-1.8c-3.6-22.5-7.1-44.9-10.7-67.4c-0.4-2.8,0.4-4.1,2.9-4.5
				c2.1-0.3,3.5,0.7,3.8,2.9C172.1,142.8,173.9,154.3,175.8,165.9"/>
			<path class="st36" d="M71.8,179.7c-1,2.4,0,4.5,2.4,5.1c1.5,0.4,3-0.5,4.2-2.4c0.3-0.5,0.5-1,0.7-1.5
				c8.9-20.1,17.7-40.2,26.6-60.4c1.4-0.1,3,0.1,4.3-0.4c3.4-1.3,6.2-3.5,8.1-6.7c0.2-0.4,1.1-0.7,1.4-0.6c2.2,0.9,4.3,2,6.5,3
				c-12.8,29.1-25.6,58.3-38.4,87.4c-2-0.8-4-1.5-5.9-2.3c-9.6-4.2-19.1-8.4-28.7-12.6c-0.6-0.3-1.3-0.6-1.8-1.1
				c-0.3-0.2-0.4-0.8-0.3-1.1c0.4-1.4,1.1-2.6,2.7-3c1.6-0.4,3.2-1,4.9-1.3c1.3-0.3,2-0.9,2.5-2c1.6-3.8,3.2-7.6,5-11.4
				c0.7-1.4,0.6-2.1-1-2.8c-3.5-1.4-7-3-10.5-4.6c-5.8-2.6-8.6-9.6-6.1-15.3c5-11.5,10-22.9,15.1-34.4c2.6-5.8,8.8-8.3,14.8-6.2
				c4.8,1.7,9.4,4.1,14.1,6.1c1.5,2.9,3.9,5.1,6.7,6.9C89.8,138.8,80.8,159.2,71.8,179.7 M57.1,141.8c-2.1,4.5,0.8,9.5,4.2,11
				c2.7,1.2,5.4,2.3,8.1,3.6c1,0.5,1.6,0.4,2-0.7c0.9-1.9,1.8-3.8,2.7-5.7c3.5-8,7.1-16,10.6-24.1c0.6-1.4,1.1-2.8,1.6-4.3
				c0.1-0.3,0-1-0.2-1.1c-3.8-1.5-7.6-3.4-11.5-4.3c-3.7-0.9-6.7,1.3-8.3,4.8c-1.5,3.5-3.1,7-4.6,10.5
				C60.1,134.9,58.7,138.4,57.1,141.8 M118.4,124c0.8-1.7,0.5-3.1-0.6-4.2c-1.1-1-2.9-1.2-4.3-0.5c-0.4,0.2-0.7,0.5-0.9,0.9
				c-1,2-2.1,3.9-3,6c-8.3,18.9-16.6,37.7-24.9,56.6c-0.5,1-0.8,2.1-1.1,3.2c-0.5,1.8,0.2,3,1.9,3.8c1.9,0.8,3.2,0.5,4.3-1
				c0.3-0.4,0.5-1,0.7-1.5c4.6-10.5,9.2-20.9,13.8-31.4C109,145.4,113.7,134.7,118.4,124"/>
			<path class="st35" d="M134.4,119.4c1.6,0.7,3.1,1.4,4.7,2c5.2,2.3,10.4,4.6,15.6,6.9c-0.3,0.7-0.5,1.2-0.8,1.8
				c-2.3,5-4.7,10-7,15.1c-0.5,1.1-0.7,2.2-1.1,3.4c-0.1,0.1-0.2,0.3-0.2,0.4c-8.4,19.2-16.9,38.4-25.3,57.7
				c-0.3,0.7-0.1,1.7,0.2,2.4c0.8,2,2,3.8,2.6,5.8c0.3,0.9-0.4,2.1-0.8,3.2c-0.1,0.2-1.1,0.1-1.6-0.1c-11.1-4.9-22.2-9.8-33.3-14.7
				c12.8-29.1,25.6-58.3,38.4-87.4C128.7,117,131.6,118.2,134.4,119.4 M96.2,190c-1.1,2.6-0.7,4.2,1.5,5.2c2.3,1,4,0.2,5.2-2.4
				c9.2-20.9,18.4-41.9,27.6-62.8c1.2-2.7,0.2-5.1-2.4-5.7c-1.8-0.4-3,0.3-3.9,2.3c-3.2,7.3-6.4,14.7-9.7,22l-4.4,10
				C105.4,169.1,100.8,179.5,96.2,190 M108.2,195.8c-0.7,1.5-0.7,2.7,0.4,3.9c1,1.2,2.5,1.4,3.9,1.1c0.7-0.1,1.3-1.1,1.8-1.7
				c0.4-0.5,0.5-1.1,0.7-1.6c9.2-20.8,18.3-41.7,27.5-62.5c1.1-2.6,0.7-4.1-1.6-5c-2-0.8-3.6-0.2-4.5,1.9
				c-4.7,10.7-9.4,21.4-14.1,32.1C117.6,174.5,112.9,185.2,108.2,195.8"/>
			<path class="st38" d="M98.7,118.3c-9,20.5-18,41-27,61.4c-1,2.4,0,4.5,2.4,5.1c1.5,0.4,3-0.5,4.2-2.4c0.3-0.5,0.5-1,0.7-1.5
				c8.9-20.1,17.7-40.2,26.6-60.4C103.3,119.8,101,119,98.7,118.3"/>
			<path class="st35" d="M134.4,119.4c1.6,0.7,3.1,1.4,4.7,2C137.5,120.8,136,120.1,134.4,119.4"/>
			<path class="st38" d="M104.3,156c4.7-10.7,9.4-21.3,14.1-32c0.8-1.7,0.5-3.1-0.6-4.2c-1.1-1-2.9-1.2-4.3-0.5
				c-0.4,0.2-0.7,0.5-0.9,0.9c-1,2-2.1,3.9-3,6c-8.3,18.9-16.6,37.7-24.9,56.6c-0.5,1-0.8,2.1-1.1,3.2c-0.5,1.8,0.2,3,1.9,3.8
				c1.9,0.8,3.2,0.5,4.3-1c0.3-0.4,0.5-1,0.7-1.5C95.1,176.9,99.7,166.5,104.3,156"/>
			<path class="st37" d="M110,158.6c-4.6,10.5-9.2,20.9-13.8,31.4c-1.1,2.6-0.7,4.2,1.5,5.2c2.3,1,4,0.2,5.2-2.4
				c9.2-20.9,18.4-41.9,27.6-62.8c1.2-2.7,0.2-5.1-2.4-5.7c-1.8-0.4-3,0.3-3.9,2.3c-3.2,7.3-6.4,14.7-9.7,22L110,158.6z"/>
			<path class="st37" d="M122.2,163.9c-4.7,10.6-9.3,21.2-14,31.8c-0.7,1.5-0.7,2.7,0.4,3.9c1,1.2,2.5,1.4,3.9,1.1
				c0.7-0.1,1.3-1.1,1.8-1.7c0.4-0.5,0.5-1.1,0.7-1.6c9.2-20.8,18.3-41.7,27.5-62.5c1.1-2.6,0.7-4.1-1.6-5c-2-0.8-3.6-0.2-4.5,1.9
				C131.7,142.5,126.9,153.2,122.2,163.9"/>
			<path class="st34" d="M106.5,129.1c12,0,23.6-10.6,23-23c-0.6-12.5-10.1-23-23-23c-12,0-23.6,10.6-23,23
				C84,118.5,93.6,129.1,106.5,129.1"/>
			<path class="st34" d="M135.2,134.8c12,0,23.6-10.6,23-23c-0.6-12.5-10.1-23-23-23c-12,0-23.6,10.6-23,23
				C112.7,124.3,122.3,134.8,135.2,134.8"/>
			<path class="st34" d="M143.7,144.5c12,0,23.6-10.6,23-23c-0.6-12.5-10.1-23-23-23c-12,0-23.6,10.6-23,23
				C121.2,134,130.8,144.5,143.7,144.5"/>
			<path class="st34" d="M130.7,78.4c-4.5-0.6-9.4-0.7-13.7-2.4c1.8,0.8,3.7,1.5,5.5,2.3c-0.5-0.2-1-0.5-1.5-0.9
				c1.6,1.2,3.1,2.4,4.7,3.6c-0.5-0.3-0.8-0.8-1.2-1.2c1.2,1.6,2.4,3.1,3.6,4.7c-0.1-0.3-0.3-0.5-0.4-0.8
				c-7.5-14.7-32.5-15.4-39.7,0l-1,2.2c-2.7,5.7-4.1,11.4-2.3,17.7c1.5,5.3,5.6,11.1,10.6,13.7c10.2,5.4,26,3.4,31.5-8.3
				c0.3-0.7,0.7-1.5,1-2.2H88c3.6,7.1,11.1,12,18.5,14c3.8,1,8,1.2,11.9,1.8c6.4,0.9,11.9,1.1,17.7-2.3c4.8-2.8,9.3-8.3,10.6-13.7
				c1.3-5.9,1.1-12.5-2.3-17.7C141.4,84.4,136.4,79.2,130.7,78.4"/>
		</g>
	</g>
</g>
</svg>
