<?xml version="1.0" standalone="no"?>
<!DOCTYPE svg PUBLIC "-//W3C//DTD SVG 20010904//EN"
 "http://www.w3.org/TR/2001/REC-SVG-20010904/DTD/svg10.dtd">
<svg version="1.0" xmlns="http://www.w3.org/2000/svg"
 width="700.000000pt" height="700.000000pt" viewBox="0 0 700.000000 700.000000"
 preserveAspectRatio="xMidYMid meet">
<metadata>
Created by potrace 1.11, written by Peter Selinger 2001-2013
</metadata>
<g transform="translate(0.000000,700.000000) scale(0.100000,-0.100000)"
fill="#000000" stroke="none">
<path d="M3264 6989 c-508 -32 -1050 -195 -1489 -449 -440 -253 -837 -612
-1123 -1014 -356 -500 -562 -1048 -634 -1681 -16 -141 -15 -547 1 -690 78
-697 322 -1290 760 -1845 177 -225 559 -570 816 -737 439 -285 939 -468 1470
-540 166 -22 675 -25 835 -5 445 56 807 167 1202 369 509 259 988 685 1306
1160 337 505 531 1055 583 1652 15 172 6 586 -16 741 -78 562 -266 1054 -576
1510 -191 282 -401 510 -684 745 -33 28 -66 56 -73 63 -8 7 -59 44 -114 83
-657 466 -1452 690 -2264 638z m-642 -1650 c61 -13 148 -50 198 -84 27 -18 60
-26 140 -35 57 -6 126 -20 153 -30 89 -34 209 -145 268 -247 13 -23 33 -46 45
-52 31 -14 137 -114 169 -160 36 -53 73 -55 136 -7 61 46 119 74 171 82 66 10
74 18 98 95 17 57 32 82 72 125 94 99 189 130 343 110 60 -7 60 -7 110 34 117
97 200 130 324 130 186 0 341 -90 437 -252 30 -53 39 -80 51 -168 8 -58 16
-159 16 -225 l2 -120 -89 -170 c-49 -93 -98 -181 -110 -194 l-21 -24 25 6 c51
12 257 46 321 52 90 10 161 -11 223 -66 60 -53 84 -101 102 -204 45 -257 134
-847 134 -886 0 -101 -62 -199 -153 -243 -35 -17 -98 -32 -192 -46 -186 -29
-185 -28 -192 -46 -8 -22 43 -352 58 -370 6 -8 44 -33 84 -55 71 -41 95 -68
95 -110 0 -11 -10 -23 -23 -28 -34 -13 -779 -130 -932 -146 -71 -8 -298 -41
-504 -74 -205 -33 -378 -58 -382 -55 -5 3 -9 22 -9 42 0 30 9 47 46 87 25 28
52 63 60 78 16 30 28 -53 -171 1207 -25 157 -47 295 -50 307 l-5 22 -48 -21
c-35 -16 -68 -22 -129 -22 -46 -1 -83 -5 -83 -9 0 -5 -59 -142 -131 -305 -280
-633 -457 -1039 -474 -1089 l-18 -51 37 -87 c33 -78 36 -90 26 -121 -6 -19
-16 -34 -22 -34 -10 0 -84 31 -588 250 -162 70 -396 172 -520 225 -330 143
-573 254 -581 267 -10 16 0 44 24 66 12 11 54 27 92 37 39 10 79 23 90 30 12
7 33 45 49 86 15 41 46 113 68 161 23 48 38 93 36 100 -3 7 -77 45 -163 83
-183 81 -230 119 -265 213 -43 113 -44 111 250 767 39 88 85 192 101 232 33
79 92 143 156 170 62 25 158 19 248 -16 44 -17 80 -29 81 -28 1 1 6 79 12 172
12 188 24 238 95 379 66 130 179 223 318 260 66 18 219 20 291 5z"/>
<path d="M1594 4301 c-54 -25 -82 -64 -137 -191 -25 -58 -76 -175 -113 -260
-36 -85 -71 -167 -76 -183 -15 -42 -1 -109 34 -161 27 -41 44 -53 144 -101
162 -78 157 -77 189 -15 15 29 79 170 142 314 63 143 126 286 140 316 40 87
63 149 63 169 0 14 -29 30 -129 70 -154 61 -200 69 -257 42z"/>
<path d="M4488 4105 c-15 -9 -30 -26 -33 -38 -5 -19 37 -293 220 -1435 24
-156 49 -291 55 -302 13 -24 43 -33 80 -25 75 16 76 48 15 429 -210 1327 -212
1338 -237 1362 -21 21 -70 26 -100 9z"/>
<path d="M2152 3982 c-22 -48 -113 -253 -202 -457 -89 -203 -200 -454 -246
-557 -46 -103 -84 -202 -84 -218 0 -44 39 -80 86 -80 50 0 75 31 134 165 27
61 154 348 282 640 l234 530 -50 16 c-28 8 -65 23 -82 32 l-31 16 -41 -87z"/>
<path d="M4161 4046 c-32 -34 -31 -47 27 -421 28 -176 59 -383 71 -460 56
-376 133 -843 143 -868 13 -34 36 -47 83 -47 40 0 85 36 85 68 0 11 -47 316
-105 678 -58 363 -117 733 -131 824 -29 191 -39 227 -64 240 -34 18 -85 12
-109 -14z"/>
<path d="M2635 4028 c-44 -15 -92 -28 -106 -28 -15 0 -29 -6 -32 -12 -3 -7
-101 -229 -217 -493 -348 -786 -358 -811 -365 -848 -9 -48 1 -74 35 -92 38
-20 73 -19 98 3 12 9 63 114 115 232 156 355 512 1162 536 1213 12 27 21 50
19 51 -2 2 -39 -10 -83 -26z"/>
<path d="M4832 4023 c-58 -4 -62 -5 -57 -26 2 -12 43 -265 90 -562 180 -1143
165 -1067 221 -1081 36 -9 92 19 100 50 3 13 -15 154 -40 312 -165 1037 -206
1299 -206 1306 0 4 -10 7 -22 6 -13 -1 -51 -3 -86 -5z"/>
<path d="M3859 3958 l-31 -63 67 -415 c36 -228 95 -596 130 -817 60 -380 73
-438 99 -455 23 -16 86 -8 107 13 20 20 21 28 14 103 -3 44 -62 432 -131 861
-68 429 -124 783 -124 787 0 17 -46 48 -72 48 -25 0 -32 -8 -59 -62z"/>
<path d="M2830 3941 c0 -9 -232 -541 -493 -1128 -69 -155 -127 -290 -128 -300
-5 -34 11 -70 36 -81 62 -28 102 -7 135 70 12 29 110 251 218 493 107 242 214
487 237 545 24 58 59 140 78 183 l36 78 -35 46 c-19 25 -42 59 -50 74 -14 28
-34 39 -34 20z"/>
<path d="M5328 3925 c-115 -17 -118 -18 -118 -57 0 -18 27 -204 61 -413 33
-209 63 -397 66 -417 9 -58 20 -63 121 -49 48 6 106 14 130 17 85 11 172 106
172 191 0 54 -87 599 -102 638 -38 100 -116 121 -330 90z"/>
<path d="M2951 3418 c-67 -156 -197 -451 -287 -656 -90 -205 -164 -384 -164
-398 0 -60 88 -97 128 -54 11 12 58 112 107 223 134 310 206 476 351 805 74
166 134 305 134 307 0 3 -8 5 -17 5 -10 0 -42 11 -71 25 -30 14 -55 25 -56 25
-1 0 -57 -127 -125 -282z"/>
</g>
</svg>
