<svg xmlns="http://www.w3.org/2000/svg" viewBox="0 0 298.51 191.51"><defs><style>.cls-1{fill:#f49b51;}.cls-2{fill:#ffb36e;}.cls-3{fill:#751d30;}.cls-4{fill:#d6434e;}.cls-5{fill:#c43748;}.cls-6{fill:#e6e6e6;}.cls-7{fill:#d8893a;}.cls-8{fill:#c47630;}.cls-9{fill:#bcbcbc;}.cls-10{fill:#fff;}.cls-11{fill:#a33d58;}.cls-12{fill:#8c2c41;}</style></defs><title>beerpong</title><g id="Layer_2" data-name="Layer 2"><g id="Layer_1-2" data-name="Layer 1"><path class="cls-1" d="M154.67,2.87h0a6.54,6.54,0,0,1,11.55,1.4h0a6.55,6.55,0,0,0,10.52,2.6h0A6.54,6.54,0,0,1,187.62,11h0a6.55,6.55,0,0,0,9.59,5h0a6.54,6.54,0,0,1,9.58,6.61h0a6.55,6.55,0,0,0,8.11,7.18h0a6.55,6.55,0,0,1,7.72,8.71h0a6.55,6.55,0,0,0,6.15,8.92h0a6.54,6.54,0,0,1,5.41,10.3h0A6.55,6.55,0,0,0,238,67.88h0a6.55,6.55,0,0,1,2.79,11.3h0a6.54,6.54,0,0,0,1.3,10.75h0a6.55,6.55,0,0,1,0,11.64h0a6.55,6.55,0,0,0-1.3,10.76h0a6.55,6.55,0,0,1-2.79,11.3h0a6.54,6.54,0,0,0-3.84,10.12h0a6.55,6.55,0,0,1-5.41,10.31h0a6.54,6.54,0,0,0-6.15,8.91h0a6.55,6.55,0,0,1-7.72,8.72h0a6.55,6.55,0,0,0-8.11,7.18h0a6.54,6.54,0,0,1-9.58,6.61h0a6.55,6.55,0,0,0-9.59,5h0a6.54,6.54,0,0,1-10.88,4.13h0a6.55,6.55,0,0,0-10.52,2.59h0a6.54,6.54,0,0,1-11.55,1.41h0a6.54,6.54,0,0,0-10.83,0h0a6.55,6.55,0,0,1-11.56-1.41h0a6.54,6.54,0,0,0-10.51-2.59h0a6.55,6.55,0,0,1-10.89-4.13h0a6.54,6.54,0,0,0-9.59-5h0a6.55,6.55,0,0,1-9.58-6.61h0a6.54,6.54,0,0,0-8.1-7.18h0A6.55,6.55,0,0,1,75.89,153h0a6.54,6.54,0,0,0-6.15-8.91h0a6.55,6.55,0,0,1-5.41-10.31h0a6.55,6.55,0,0,0-3.84-10.12h0a6.55,6.55,0,0,1-2.79-11.3h0a6.55,6.55,0,0,0-1.31-10.76h0a6.55,6.55,0,0,1,0-11.64h0A6.54,6.54,0,0,0,57.7,79.18h0a6.55,6.55,0,0,1,2.79-11.3h0a6.55,6.55,0,0,0,3.84-10.13h0a6.54,6.54,0,0,1,5.41-10.3h0a6.55,6.55,0,0,0,6.15-8.92h0a6.55,6.55,0,0,1,7.72-8.71h0a6.54,6.54,0,0,0,8.1-7.18h0A6.55,6.55,0,0,1,101.29,16h0a6.54,6.54,0,0,0,9.59-5h0a6.55,6.55,0,0,1,10.89-4.12h0a6.54,6.54,0,0,0,10.51-2.6h0a6.55,6.55,0,0,1,11.56-1.4h0A6.54,6.54,0,0,0,154.67,2.87Z"/><circle class="cls-2" cx="149.25" cy="95.75" r="80.65"/><polygon class="cls-3" points="298.51 73.91 0 73.91 12.48 102.56 0 131.21 298.51 131.21 286.03 102.56 298.51 73.91"/><path class="cls-4" d="M106.21,104.57l1.73-1.46v-7.9l-5.2-4.39H44.07v4.05l-4.83-4.05h-17v8.73l2,.52v5l-2,.52v8.7H39.18l4.89-4.06v4.06h64.64v-9.12l-2.41-.45Zm-60.18.5-1.46.38v-3l-.26-.21.16-.13V99.66l1.56.41Zm20.78,0-1.38.36v-2.86h0V99.7l1.41.37Zm20.78,0-1.39.36v-2.86h0V99.7l1.41.37Z"/><path class="cls-4" d="M274.94,90.82h-9.62l-4.81,4v-4h-25V95l-4.94-4.13h-9.63l-5,4.19-5-4.19H194v8.73l2,.52v5l-2,.52v8.7h14.67v-6.22h2.28l4.49-3.75v5.32l5.63,4.65h9.31l.74-.59c.67-.54,1.33-1.09,2-1.64l1.93-1.59.46-.36v4.18h23.06V100.07l1.05-.27v9.6l5.88,4.89H280.2V95.2Zm-37.49,14.25-1.41.37V99.7l1.41.37Z"/><path class="cls-4" d="M106.42,44.89l11.47,93.16,2.42,19.64.69.21c8.21,2.38,19.24,3.84,31.37,3.84s23.15-1.46,31.36-3.84l.69-.21,2.42-19.64,11.48-93.16Z"/><path class="cls-5" d="M183.74,157.9a1.1,1.1,0,0,0,.77-.92l2.33-18.93,11.48-93.16H152.37V161.74c12.12,0,23.15-1.46,31.36-3.84Z"/><ellipse class="cls-6" cx="152.37" cy="44.89" rx="45.95" ry="14.26"/><path class="cls-7" d="M152.37,56.29c-12,0-23.23-1.44-31.65-4-7.9-2.45-11.44-5.46-11.44-7.35s3.54-4.9,11.44-7.36c8.42-2.61,19.65-4.05,31.65-4.05S175.6,34.92,184,37.53c7.91,2.46,11.45,5.47,11.45,7.36s-3.54,4.9-11.45,7.35C175.6,54.85,164.36,56.29,152.37,56.29Z"/><path class="cls-8" d="M179,53.6a121.89,121.89,0,0,0-26.58-2.7,121.76,121.76,0,0,0-26.58,2.7,121.8,121.8,0,0,0,26.58,2.69A121.93,121.93,0,0,0,179,53.6Z"/><path class="cls-9" d="M187.46,51c5.5-2.17,8-4.55,8-6.14,0-1.89-3.54-4.9-11.45-7.36-8.41-2.61-19.65-4.05-31.64-4.05s-23.23,1.44-31.65,4.05c-7.9,2.46-11.44,5.47-11.44,7.36,0,1.59,2.5,4,8,6.14,8.43-3.09,21-5.06,35.1-5.06S179,47.94,187.46,51Z"/><circle class="cls-10" cx="152.21" cy="106.08" r="22.16"/><path class="cls-6" d="M156.5,84.34a18.82,18.82,0,1,1-26,26,22.16,22.16,0,1,0,26-26Z"/><circle class="cls-6" cx="144.16" cy="97.46" r="5.1"/><path class="cls-10" d="M40.06,102.2l1.81,1.49v4.86l-3.67,3H25v-3.92l2-.52V98l-2-.52v-4H38.26l3.51,3v4.33Zm-7.77-1.47h3.59l.62-.52V98.5L35.88,98H32.29Zm0,6.42h3.59l.67-.54v-2.22l-.62-.52H32.29Z"/><path class="cls-10" d="M58.9,99.87,58.39,98H54.05v2.92h4.34V104H54.05v3.15h4.34l.51-1.88h3.82v6.32H46.77v-3.92l2-.52V98l-2-.52v-4H62.7v6.35Z"/><path class="cls-10" d="M79.68,99.87,79.16,98H74.83v2.92h4.33V104H74.83v3.15h4.33l.52-1.88H83.5v6.32h-16v-3.92l2-.52V98l-2-.52v-4H83.48v6.35Z"/><path class="cls-10" d="M88.33,111.59v-3.92l2-.52V98l-2-.52v-4h13.42l3.48,3v5.39L102.68,104l2,3.12,1.37.26v4.18H101.1l-4.13-7H95.63v2.6l2,.52v3.92Zm7.3-10.66H99.3l.62-.51V98.5L99.3,98H95.63Z"/><path class="cls-10" d="M213.7,102.25,210,105.37h-6v1.81l2,.51v3.9h-9.27v-3.92l2-.52V98l-2-.52v-4H210l3.74,3.15ZM204,98v2.92h3.69l.68-.57V98.53l-.68-.54Z"/><path class="cls-10" d="M229.42,111.59H222l-3.89-3.22V96.67l3.76-3.15h7.67l3.77,3.15v11.7C232,109.42,230.73,110.53,229.42,111.59ZM224.15,98l-.7.54v8l.73.59h3.12l.72-.59v-8l-.69-.54Z"/><path class="cls-10" d="M257.81,93.52v4l-2,.52v13.6h-5.22l-6-10.06v5.62l2,.52v3.92h-8.44v-3.92l2-.52V98l-2-.52v-4h7.74l5.37,9.66V98l-2-.52v-4Z"/><path class="cls-10" d="M272.7,99.87,272.18,98h-3.82l-.75.59v8l.78.62h3l.8-.67V104h-2.42v-3.09h7.74v10.68h-4.05l-.52-1.42-1.7,1.42h-4.78l-4.15-3.46V96.85l4-3.33H274l3.53,3v3.4Z"/><path class="cls-3" d="M92.28,174.46a338.39,338.39,0,0,1-43.23-12.62c3.68-3.89,5.48-5.86,9-9.84-.2-5.31-.26-8-.29-13.25a316.74,316.74,0,0,0,39.58,11.56Z"/><path class="cls-11" d="M97.35,150.31c-5.69,2.23-11.38,4.3-17.17,6.26L73.76,180.4q9.36-2.64,18.52-5.94Z"/><path class="cls-3" d="M212.46,174.46a338.39,338.39,0,0,0,43.23-12.62c-3.68-3.89-5.48-5.86-9-9.84.2-5.31.26-8,.28-13.25a316.59,316.59,0,0,1-39.57,11.56Z"/><path class="cls-11" d="M207.39,150.31c5.69,2.23,11.38,4.3,17.17,6.26L231,180.4q-9.37-2.64-18.52-5.94Z"/><path class="cls-12" d="M231.13,180.35a313.16,313.16,0,0,1-157.37.05l6.42-23.83a288.45,288.45,0,0,0,144.53,0Z"/><path class="cls-10" d="M127.37,184.55h-1.85V172.61H131v1.7h-3.61v3.22h2.68v1.7h-2.68Z"/><path class="cls-10" d="M127.54,184.72h-2.19V172.43h5.81v2.06h-3.62v2.86h2.69v2.06h-2.69Zm-1.84-.35h1.49v-5.32h2.68v-1.34h-2.68v-3.58h3.61v-1.34h-5.1Z"/><path class="cls-10" d="M138.64,180.75a4.58,4.58,0,0,1-.68,2.83,3.48,3.48,0,0,1-5.15,0,4.52,4.52,0,0,1-.68-2.83V176.4a4.49,4.49,0,0,1,.68-2.82,3.46,3.46,0,0,1,5.15,0,4.55,4.55,0,0,1,.68,2.82Zm-3.85-9.09h-1.55v-1.59h1.55Zm-.82,9.06a3.22,3.22,0,0,0,.23,1.62,1.4,1.4,0,0,0,2.36,0,3,3,0,0,0,.24-1.62v-4.28a3,3,0,0,0-.24-1.63,1.41,1.41,0,0,0-2.36,0,3.3,3.3,0,0,0-.23,1.63Zm3.56-9.06H136v-1.59h1.56Z"/><path class="cls-10" d="M135.38,184.9a3.16,3.16,0,0,1-2.72-1.22,4.77,4.77,0,0,1-.71-2.93V176.4a4.75,4.75,0,0,1,.71-2.92,3.65,3.65,0,0,1,5.44,0,4.74,4.74,0,0,1,.72,2.93v4.35a4.7,4.7,0,0,1-.72,2.93A3.16,3.16,0,0,1,135.38,184.9Zm0-12.29a2.83,2.83,0,0,0-2.43,1.07,4.34,4.34,0,0,0-.65,2.72v4.35a4.35,4.35,0,0,0,.65,2.73,3.29,3.29,0,0,0,4.86,0,4.35,4.35,0,0,0,.65-2.73V176.4a4.34,4.34,0,0,0-.65-2.72A2.83,2.83,0,0,0,135.38,172.61Zm0,10.56a1.5,1.5,0,0,1-1.33-.74,3.35,3.35,0,0,1-.26-1.71v-4.28a3.44,3.44,0,0,1,.25-1.71,1.58,1.58,0,0,1,2.68,0,3.29,3.29,0,0,1,.25,1.71v4.28a3.29,3.29,0,0,1-.25,1.71A1.51,1.51,0,0,1,135.38,183.17Zm0-8.82a1.14,1.14,0,0,0-1,.55,3.05,3.05,0,0,0-.21,1.54v4.28a3.13,3.13,0,0,0,.21,1.55,1.24,1.24,0,0,0,2,0,3,3,0,0,0,.21-1.54v-4.28a3.06,3.06,0,0,0-.21-1.55A1.17,1.17,0,0,0,135.38,174.35Zm2.33-2.51H135.8v-2h1.91Zm-1.56-.35h1.2v-1.24h-1.2Zm-1.18.35h-1.91v-2H135Zm-1.56-.35h1.2v-1.24h-1.2Z"/><path class="cls-10" d="M142.18,184.55h-1.84V172.61h2.88a3.31,3.31,0,0,1,2.36.72,3.35,3.35,0,0,1,1.07,2.7,3.15,3.15,0,0,1-1.61,3.09l1.76,5.43h-1.93l-1.58-4.91h-1.11Zm.68-6.61c.79,0,1.15-.09,1.43-.37a2,2,0,0,0,.45-1.45,1.92,1.92,0,0,0-.45-1.43c-.28-.29-.64-.38-1.43-.38h-.68v3.63Z"/><path class="cls-10" d="M147,184.72h-2.3l-1.58-4.9h-.8v4.9h-2.2V172.43h3.06a3.5,3.5,0,0,1,2.48.76,3.55,3.55,0,0,1,1.13,2.84,3.37,3.37,0,0,1-1.57,3.18Zm-2-.35h1.56L144.83,179,145,179a3,3,0,0,0,1.52-2.94,2.92,2.92,0,0,0-3.26-3.24h-2.7v11.58H142v-4.9h1.42Zm-2.13-6.25H142v-4h.86c.85,0,1.24.11,1.56.43a2.7,2.7,0,0,1,0,3.13C144.1,178,143.71,178.12,142.86,178.12Zm-.5-.35h.5c.74,0,1.06-.08,1.31-.33a2.41,2.41,0,0,0,0-2.63c-.25-.24-.56-.32-1.31-.32h-.5Z"/><path class="cls-10" d="M153.28,172.61h1.84v11.94h-1.84v-4l-1-1.66-2,5.64h-2l2.88-7.61-2.53-4.33h2l2.67,4.94Z"/><path class="cls-10" d="M155.3,184.72h-2.2v-4.1l-.77-1.29-1.92,5.39H148L151,177l-2.64-4.53h2.4l2.39,4.42v-4.42h2.2Zm-1.85-.35h1.49V172.79h-1.49v5.46l-2.95-5.46h-1.57l2.41,4.14-2.82,7.44h1.64l2.09-5.88,1.2,2Z"/><path class="cls-10" d="M158.27,184.55h-1.85V172.61h2.88a3.33,3.33,0,0,1,2.37.72,3.38,3.38,0,0,1,1.07,2.7,3.16,3.16,0,0,1-1.61,3.09l1.75,5.43H161l-1.57-4.91h-1.11Zm.68-6.61c.78,0,1.14-.09,1.43-.37a2,2,0,0,0,.45-1.45,2,2,0,0,0-.45-1.43c-.29-.29-.65-.38-1.43-.38h-.68v3.63Z"/><path class="cls-10" d="M163.13,184.72h-2.31l-1.57-4.9h-.81v4.9h-2.19V172.43h3.05a3.48,3.48,0,0,1,2.48.76,3.52,3.52,0,0,1,1.14,2.84,3.36,3.36,0,0,1-1.58,3.18Zm-2-.35h1.56L160.91,179l.14-.07a3,3,0,0,0,1.51-2.94,3.21,3.21,0,0,0-1-2.57,3.17,3.17,0,0,0-2.25-.67h-2.7v11.58h1.49v-4.9h1.42ZM159,178.12h-.86v-4H159c.84,0,1.23.11,1.55.43a2.7,2.7,0,0,1,0,3.13C160.18,178,159.79,178.12,159,178.12Zm-.51-.35H159c.74,0,1.06-.08,1.3-.33a1.78,1.78,0,0,0,.4-1.32,1.81,1.81,0,0,0-.4-1.31c-.24-.24-.56-.32-1.3-.32h-.51Z"/><path class="cls-10" d="M170.74,180.75a4.58,4.58,0,0,1-.68,2.83,3.48,3.48,0,0,1-5.15,0,4.52,4.52,0,0,1-.68-2.83V176.4a4.49,4.49,0,0,1,.68-2.82,3.46,3.46,0,0,1,5.15,0,4.55,4.55,0,0,1,.68,2.82Zm-3.85-9.09h-1.56v-1.59h1.56Zm-.82,9.06a3.22,3.22,0,0,0,.23,1.62,1.4,1.4,0,0,0,2.36,0,3,3,0,0,0,.24-1.62v-4.28a3,3,0,0,0-.24-1.63,1.41,1.41,0,0,0-2.36,0,3.3,3.3,0,0,0-.23,1.63Zm3.56-9.06h-1.56v-1.59h1.56Z"/><path class="cls-10" d="M167.48,184.9a3.16,3.16,0,0,1-2.72-1.22,4.7,4.7,0,0,1-.71-2.93V176.4a4.69,4.69,0,0,1,.71-2.92,3.65,3.65,0,0,1,5.44,0,4.74,4.74,0,0,1,.72,2.93v4.35a4.7,4.7,0,0,1-.72,2.93A3.16,3.16,0,0,1,167.48,184.9Zm0-12.29a2.83,2.83,0,0,0-2.43,1.07,4.34,4.34,0,0,0-.65,2.72v4.35a4.35,4.35,0,0,0,.65,2.73,3.29,3.29,0,0,0,4.86,0,4.35,4.35,0,0,0,.65-2.73V176.4a4.34,4.34,0,0,0-.65-2.72A2.83,2.83,0,0,0,167.48,172.61Zm0,10.56a1.53,1.53,0,0,1-1.34-.74,3.49,3.49,0,0,1-.25-1.71v-4.28a3.44,3.44,0,0,1,.25-1.71,1.58,1.58,0,0,1,2.68,0,3.29,3.29,0,0,1,.25,1.71v4.28a3.29,3.29,0,0,1-.25,1.71A1.51,1.51,0,0,1,167.48,183.17Zm0-8.82a1.14,1.14,0,0,0-1,.55,3.05,3.05,0,0,0-.21,1.54v4.28a3.13,3.13,0,0,0,.21,1.55,1.24,1.24,0,0,0,2,0,3,3,0,0,0,.21-1.54v-4.28a3.06,3.06,0,0,0-.21-1.55A1.17,1.17,0,0,0,167.48,174.35Zm2.33-2.51h-1.92v-2h1.92Zm-1.56-.35h1.2v-1.24h-1.2Zm-1.18.35h-1.91v-2h1.91Zm-1.56-.35h1.2v-1.24h-1.2Z"/><path class="cls-10" d="M174.28,177.55l2.67-4.94h2l-2.52,4.33,2.88,7.61h-2l-2-5.64-1,1.66v4h-1.84V172.61h1.84Z"/><path class="cls-10" d="M179.55,184.72h-2.41l-1.92-5.39-.76,1.29v4.1h-2.2V172.43h2.2v4.42l2.38-4.42h2.4L176.61,177Zm-2.16-.35H179l-2.82-7.44,2.41-4.14h-1.57l-3,5.46v-5.46h-1.48v11.58h1.48v-3.84l1.21-2Z"/></g></g></svg>