<svg xmlns="http://www.w3.org/2000/svg" viewBox="0 0 1135.61 1738.96"><defs><style>.cls-1,.cls-11{font-size:31px;}.cls-1{fill:#d34e24;font-family:Lato-Bold, Lato;font-weight:700;}.cls-2{letter-spacing:-0.04em;}.cls-3{letter-spacing:-0.09em;}.cls-12,.cls-13,.cls-14,.cls-16,.cls-17,.cls-18,.cls-20,.cls-21,.cls-22,.cls-23,.cls-4{font-size:24px;}.cls-11,.cls-4{font-family:Lato-Regular, Lato;}.cls-5{letter-spacing:-0.1em;}.cls-13,.cls-6{letter-spacing:-0.02em;}.cls-16,.cls-7{letter-spacing:-0.01em;}.cls-17,.cls-8{letter-spacing:0em;}.cls-9{letter-spacing:-0.02em;}.cls-10{letter-spacing:0em;}.cls-14,.cls-15{letter-spacing:-0.01em;}.cls-18{letter-spacing:-0.02em;}.cls-19,.cls-20{letter-spacing:-0.03em;}.cls-21{letter-spacing:-0.08em;}.cls-22{letter-spacing:-0.03em;}.cls-23{letter-spacing:-0.11em;}.cls-24{letter-spacing:-0.07em;}.cls-25{fill:none;stroke:#000;stroke-miterlimit:10;}</style></defs><title>bullshit</title><g id="Layer_2" data-name="Layer 2"><g id="Layer_1-2" data-name="Layer 1"><text class="cls-1" transform="translate(0 45.03)">OBJECT</text><text class="cls-1" transform="translate(0 141.1)">HOW <tspan class="cls-2" x="86.64" y="0">T</tspan><tspan x="103.88" y="0">O PL</tspan><tspan class="cls-3" x="170.05" y="0">A</tspan><tspan x="189.24" y="0">Y</tspan></text><text class="cls-1" transform="translate(0 996.29)">WINNING</text><text class="cls-4" transform="translate(326.05 39.96)"><tspan class="cls-5">T</tspan><tspan x="11.64" y="0">o be the first pl</tspan><tspan class="cls-6" x="166.49" y="0">a</tspan><tspan class="cls-7" x="178.27" y="0">y</tspan><tspan class="cls-8" x="190.25" y="0">er to successfully pl</tspan><tspan class="cls-9" x="393.67" y="0">a</tspan><tspan class="cls-10" x="405.45" y="0">y all the cards in </tspan><tspan class="cls-7" x="576.59" y="0">y</tspan><tspan x="588.57" y="0">our hand.</tspan></text><text class="cls-11" transform="translate(326.05 161.12)">#<tspan class="cls-12" x="17.98" y="0" xml:space="preserve"> Shuffle and deal all 52 cards out amongst the pl</tspan><tspan class="cls-13" x="511.12" y="0">a</tspan><tspan class="cls-14" x="522.91" y="0">y</tspan><tspan class="cls-12" x="534.88" y="0">ers (some pl</tspan><tspan class="cls-13" x="659.44" y="0">a</tspan><tspan class="cls-14" x="671.23" y="0">y</tspan><tspan class="cls-12" x="683.2" y="0">ers m</tspan><tspan class="cls-13" x="740.2" y="0">a</tspan><tspan class="cls-12" x="751.99" y="0">y </tspan><tspan class="cls-12"><tspan x="0" y="28.8">h</tspan><tspan class="cls-6" x="13.34" y="28.8">a</tspan><tspan class="cls-15" x="25.13" y="28.8">v</tspan><tspan x="37.1" y="28.8">e more than others).</tspan></tspan><tspan x="0" y="94.8">#</tspan><tspan class="cls-12" x="17.98" y="94.8" xml:space="preserve"> Beginning with aces, the first pl</tspan><tspan class="cls-13" x="345.98" y="94.8">a</tspan><tspan class="cls-14" x="357.77" y="94.8">y</tspan><tspan class="cls-12" x="369.74" y="94.8">er places a card </tspan><tspan class="cls-13" x="534.91" y="94.8">(</tspan><tspan class="cls-12" x="541.72" y="94.8">or cards) facedown on </tspan><tspan class="cls-12"><tspan x="0" y="123.6">the table and announces the number of cards he has pl</tspan><tspan class="cls-6" x="562.94" y="123.6">a</tspan><tspan class="cls-15" x="574.72" y="123.6">y</tspan><tspan x="586.7" y="123.6">ed </tspan><tspan class="cls-6" x="617.32" y="123.6">(</tspan><tspan x="624.14" y="123.6">e.g., 2 aces, 3 </tspan><tspan x="0" y="152.4">fours, 1 queen, etc.)</tspan></tspan><tspan x="0" y="218.4">#</tspan><tspan class="cls-12" x="17.98" y="218.4" xml:space="preserve"> Pl</tspan><tspan class="cls-13" x="43.42" y="218.4">a</tspan><tspan class="cls-12" x="55.2" y="218.4">y continues around the table sequentially (aces, twos, threes, fours, etc.), </tspan><tspan class="cls-12"><tspan x="0" y="247.2">with each set of cards being placed on top of the ones before them.</tspan></tspan><tspan x="0" y="313.2">#</tspan><tspan class="cls-12" x="17.98" y="313.2" xml:space="preserve"> If a</tspan><tspan class="cls-13" x="54.87" y="313.2">n</tspan><tspan class="cls-14" x="67.83" y="313.2">y</tspan><tspan class="cls-12" x="79.8" y="313.2">one beli</tspan><tspan class="cls-14" x="161.98" y="313.2">ev</tspan><tspan class="cls-12" x="186.22" y="313.2">es a pl</tspan><tspan class="cls-13" x="250.03" y="313.2">a</tspan><tspan class="cls-14" x="261.82" y="313.2">y</tspan><tspan class="cls-12" x="273.79" y="313.2">er is bluffing, th</tspan><tspan class="cls-16" x="434.16" y="313.2">e</tspan><tspan class="cls-12" x="446.42" y="313.2">y can call &quot;bullshit&quot; after that </tspan><tspan class="cls-12"><tspan x="0" y="342">pl</tspan><tspan class="cls-6" x="19.39" y="342">a</tspan><tspan class="cls-15" x="31.18" y="342">y</tspan><tspan x="43.15" y="342">er l</tspan><tspan class="cls-6" x="76.18" y="342">a</tspan><tspan x="87.96" y="342">ys down his card(s).</tspan></tspan><tspan x="0" y="408">#</tspan><tspan class="cls-12" x="17.98" y="408" xml:space="preserve"> The person who pl</tspan><tspan class="cls-13" x="213.65" y="408">a</tspan><tspan class="cls-14" x="225.43" y="408">y</tspan><tspan class="cls-12" x="237.41" y="408">ed the card(s), must turn </tspan><tspan class="cls-14" x="495.52" y="408">ov</tspan><tspan class="cls-12" x="520.53" y="408">er the card(s) th</tspan><tspan class="cls-16" x="685.12" y="408">e</tspan><tspan class="cls-17" x="697.39" y="408">y pl</tspan><tspan class="cls-18" x="733.7" y="408">a</tspan><tspan class="cls-14" x="745.48" y="408">y</tspan><tspan class="cls-12" x="757.46" y="408">ed </tspan><tspan class="cls-12"><tspan x="0" y="436.8">to show whether th</tspan><tspan class="cls-15" x="202.82" y="436.8">e</tspan><tspan x="215.08" y="436.8">y were lying.</tspan></tspan><tspan x="0" y="502.8">#</tspan><tspan class="cls-12" x="17.98" y="502.8" xml:space="preserve"> If the cards are indeed what the person said th</tspan><tspan class="cls-14" x="502.15" y="502.8">e</tspan><tspan class="cls-12" x="514.41" y="502.8">y were, the person who </tspan><tspan class="cls-12"><tspan x="0" y="531.6">called &quot;bullshit&quot; ta</tspan><tspan class="cls-19" x="188.99" y="531.6">k</tspan><tspan x="200.85" y="531.6">es the entire pile of cards and adds them to his or her </tspan><tspan x="0" y="560.4">hand.</tspan></tspan><tspan x="0" y="626.4">#</tspan><tspan class="cls-12" x="17.98" y="626.4" xml:space="preserve"> If the person was indeed lying, he ta</tspan><tspan class="cls-20" x="392.71" y="626.4">k</tspan><tspan class="cls-12" x="404.57" y="626.4">es the entire pile of cards and adds </tspan><tspan class="cls-12"><tspan x="0" y="655.2">them to his or her own hand.</tspan><tspan x="0" y="712.8"># Pl</tspan><tspan class="cls-6" x="39.36" y="712.8">a</tspan><tspan x="51.14" y="712.8">y resumes.</tspan></tspan></text><text class="cls-11" transform="translate(318.5 996.11)">#<tspan class="cls-12" x="17.98" y="0"> </tspan><tspan class="cls-21" x="22.61" y="0">Y</tspan><tspan class="cls-12" x="35.79" y="0">ou pl</tspan><tspan class="cls-13" x="86.5" y="0">a</tspan><tspan class="cls-12" x="98.28" y="0">y until someone pl</tspan><tspan class="cls-13" x="287.09" y="0">a</tspan><tspan class="cls-12" x="298.87" y="0">ys their last card(s).</tspan><tspan x="0" y="66">#</tspan><tspan class="cls-12" x="17.98" y="66" xml:space="preserve"> A</tspan><tspan class="cls-13" x="38.93" y="66">n</tspan><tspan class="cls-14" x="51.89" y="66">y</tspan><tspan class="cls-12" x="63.87" y="66">one who notices that a pl</tspan><tspan class="cls-13" x="322.32" y="66">a</tspan><tspan class="cls-14" x="334.1" y="66">y</tspan><tspan class="cls-12" x="346.08" y="66">er is out of cards will li</tspan><tspan class="cls-22" x="575.73" y="66">k</tspan><tspan class="cls-12" x="587.59" y="66">ely call &quot;bullshit</tspan><tspan class="cls-23" x="750.95" y="66">.</tspan><tspan class="cls-12" x="753.3" y="66" xml:space="preserve">&quot;  </tspan><tspan class="cls-12"><tspan x="0" y="94.8">If the card is indeed what the pl</tspan><tspan class="cls-6" x="324.36" y="94.8">a</tspan><tspan class="cls-15" x="336.14" y="94.8">y</tspan><tspan x="348.12" y="94.8">er said it was, th</tspan><tspan class="cls-15" x="514.48" y="94.8">e</tspan><tspan x="526.75" y="94.8">y are the winne</tspan><tspan class="cls-24" x="686.01" y="94.8">r</tspan><tspan x="694.09" y="94.8" xml:space="preserve">.  </tspan></tspan></text><line class="cls-25" x1="269.67" x2="269.67" y2="1146.17"/><line class="cls-25" y1="82.2" x2="1131.09" y2="82.2"/><line class="cls-25" y1="927.73" x2="1131.09" y2="927.73"/></g></g></svg>