<svg xmlns="http://www.w3.org/2000/svg" viewBox="0 0 88.51 75.63">
  <defs>
    <style>
      .cls-1 {
        fill: #f3f3f3;
        stroke: #f3f3f3;
        stroke-miterlimit: 10;
      }
    </style>
  </defs>
  <title>starsgrey</title>
  <g id="Layer_2" data-name="Layer 2">
    <g id="Layer_1-2" data-name="Layer 1">
      <g>
        <path class="cls-1" d="M11.71,46.65l-.64-1.78q-1-2.83-2-5.67a.39.39,0,0,0-.32-.27L1.5,37a2.7,2.7,0,0,1-.65-.26.6.6,0,0,1-.17-1,9.62,9.62,0,0,1,1-.89L7.1,30.76a.39.39,0,0,0,.17-.38Q7,26.61,6.85,22.85a2.46,2.46,0,0,1,0-.67.6.6,0,0,1,.82-.46,2.6,2.6,0,0,1,.59.31l6.19,4.22a.48.48,0,0,0,.5.05l7.15-2.77.19-.06c.71-.17,1.12.2.94.91-.24,1-.54,1.94-.82,2.91q-.68,2.34-1.37,4.68a.39.39,0,0,0,.08.41q2.28,2.78,4.55,5.57a4.07,4.07,0,0,1,.55.83.6.6,0,0,1-.46.91,1.88,1.88,0,0,1-.42.06L17.73,40a.43.43,0,0,0-.4.23q-2,3.19-4.11,6.38a2.18,2.18,0,0,1-.24.32C12.55,47.36,12.05,47.29,11.71,46.65Z"/>
        <path class="cls-1" d="M75,74.58l.1-1.22q.17-1.95.34-3.9a.25.25,0,0,0-.11-.24l-3.76-3.08a1.75,1.75,0,0,1-.31-.33.39.39,0,0,1,.17-.63,6.26,6.26,0,0,1,.86-.24l4.29-1a.26.26,0,0,0,.2-.18l1.8-4.56a1.6,1.6,0,0,1,.21-.38.39.39,0,0,1,.61,0,1.69,1.69,0,0,1,.27.35l2.51,4.17a.31.31,0,0,0,.28.17l5,.3.13,0c.46.09.61.42.31.79s-.85,1-1.27,1.5L84.5,68.45a.25.25,0,0,0-.06.26Q85,71,85.62,73.24a2.65,2.65,0,0,1,.1.64c0,.32-.2.47-.52.41a1.22,1.22,0,0,1-.26-.08l-4.59-1.94a.28.28,0,0,0-.3,0l-4.16,2.66a1.42,1.42,0,0,1-.23.13C75.28,75.23,75,75.05,75,74.58Z"/>
        <path class="cls-1" d="M21.75,16.43l.1-1.22q.17-1.95.34-3.9a.25.25,0,0,0-.11-.24L18.33,8A1.75,1.75,0,0,1,18,7.66.39.39,0,0,1,18.19,7,6.26,6.26,0,0,1,19,6.79l4.29-1a.26.26,0,0,0,.2-.18l1.8-4.56a1.6,1.6,0,0,1,.21-.38.39.39,0,0,1,.61,0,1.69,1.69,0,0,1,.27.35l2.51,4.17a.31.31,0,0,0,.28.17l5,.3.13,0c.46.09.61.42.31.79s-.85,1-1.27,1.5L31.27,10.3a.25.25,0,0,0-.06.26q.59,2.26,1.18,4.53a2.65,2.65,0,0,1,.1.64c0,.32-.2.47-.52.41a1.22,1.22,0,0,1-.26-.08l-4.59-1.94a.28.28,0,0,0-.3,0L22.66,16.8a1.42,1.42,0,0,1-.23.13C22.05,17.08,21.78,16.9,21.75,16.43Z"/>
        <path class="cls-1" d="M43.86,44.68l1.35-2.33q2.17-3.72,4.34-7.43a.56.56,0,0,0,0-.59Q47.26,29.5,45,24.67a3.85,3.85,0,0,1-.31-.94.86.86,0,0,1,.93-1.09,13.75,13.75,0,0,1,1.93.33L57,25a.56.56,0,0,0,.57-.17q3.92-3.7,7.86-7.38a3.52,3.52,0,0,1,.77-.57.86.86,0,0,1,1.26.48,3.72,3.72,0,0,1,.2.94Q68.2,23.65,68.73,29a.68.68,0,0,0,.4.6l9.61,5.27L79,35c.83.62.81,1.41-.13,1.87-1.29.63-2.62,1.19-3.94,1.78l-6.38,2.8a.56.56,0,0,0-.37.46q-.95,5.05-1.91,10.1a5.82,5.82,0,0,1-.4,1.36.86.86,0,0,1-1.42.33,2.68,2.68,0,0,1-.45-.4q-3.65-4.08-7.3-8.17a.61.61,0,0,0-.61-.22L45.32,46.27a3.12,3.12,0,0,1-.57,0C43.84,46.25,43.47,45.64,43.86,44.68Z"/>
      </g>
    </g>
  </g>
</svg>
