<svg id="Layer_1" data-name="Layer 1" xmlns="http://www.w3.org/2000/svg" xmlns:xlink="http://www.w3.org/1999/xlink" viewBox="0 0 337 337">
  <defs>
    <style>
      .cls-1 {
        fill: none;
      }

      .cls-2 {
        clip-path: url(#clip-path);
      }

      .cls-3 {
        clip-path: url(#clip-path-2);
      }

      .cls-4 {
        fill: #d34e24;
      }

      .cls-5 {
        fill: #d44f25;
      }

      .cls-6 {
        fill: #d45026;
      }

      .cls-7 {
        fill: #d55127;
      }

      .cls-8 {
        fill: #d65228;
      }

      .cls-9 {
        fill: #d75329;
      }

      .cls-10 {
        fill: #d7542a;
      }

      .cls-11 {
        fill: #d8552b;
      }

      .cls-12 {
        fill: #d9562c;
      }

      .cls-13 {
        fill: #d9572d;
      }

      .cls-14 {
        fill: #da582e;
      }

      .cls-15 {
        fill: #db592f;
      }

      .cls-16 {
        fill: #dc5a30;
      }

      .cls-17 {
        fill: #dc5b31;
      }

      .cls-18 {
        fill: #dd5c32;
      }

      .cls-19 {
        fill: #de5d33;
      }

      .cls-20 {
        fill: #df5f34;
      }

      .cls-21 {
        fill: #df6035;
      }

      .cls-22 {
        fill: #e06136;
      }

      .cls-23 {
        fill: #e16237;
      }

      .cls-24 {
        fill: #e16338;
      }

      .cls-25 {
        fill: #e26439;
      }

      .cls-26 {
        fill: #e3653a;
      }

      .cls-27 {
        fill: #e4663b;
      }

      .cls-28 {
        fill: #e4673c;
      }

      .cls-29 {
        fill: #e5683d;
      }

      .cls-30 {
        fill: #e6693e;
      }

      .cls-31 {
        fill: #e66a3f;
      }

      .cls-32 {
        fill: #e76b40;
      }

      .cls-33 {
        fill: #e86c41;
      }

      .cls-34 {
        fill: #e96d42;
      }

      .cls-35 {
        fill: #e96e43;
      }

      .cls-36 {
        fill: #ea6f44;
      }

      .cls-37 {
        fill: #fff;
      }

      .cls-38 {
        fill: #fdcd01;
      }

      .cls-39 {
        fill: #e6ba01;
      }

      .cls-40 {
        fill: #e6b100;
      }

      .cls-41 {
        fill: #d7a600;
      }
    </style>
    <clipPath id="clip-path">
      <rect class="cls-1" width="337" height="337"/>
    </clipPath>
    <clipPath id="clip-path-2">
      <circle class="cls-1" cx="168.5" cy="168.5" r="168.5"/>
    </clipPath>
  </defs>
  <title>Artboard 2</title>
  <g id="Artwork_1" data-name="Artwork 1">
    <g class="cls-2">
      <g class="cls-3">
        <rect class="cls-4" y="326.79" width="337" height="10.21"/>
        <rect class="cls-5" y="316.58" width="337" height="10.21"/>
        <rect class="cls-6" y="306.36" width="337" height="10.21"/>
        <rect class="cls-7" y="296.15" width="337" height="10.21"/>
        <rect class="cls-8" y="285.94" width="337" height="10.21"/>
        <rect class="cls-9" y="275.73" width="337" height="10.21"/>
        <rect class="cls-10" y="265.51" width="337" height="10.21"/>
        <rect class="cls-11" y="255.3" width="337" height="10.21"/>
        <rect class="cls-12" y="245.09" width="337" height="10.21"/>
        <rect class="cls-13" y="234.88" width="337" height="10.21"/>
        <rect class="cls-14" y="224.67" width="337" height="10.21"/>
        <rect class="cls-15" y="214.46" width="337" height="10.21"/>
        <rect class="cls-16" y="204.24" width="337" height="10.21"/>
        <rect class="cls-17" y="194.03" width="337" height="10.21"/>
        <rect class="cls-18" y="183.82" width="337" height="10.21"/>
        <rect class="cls-19" y="173.61" width="337" height="10.21"/>
        <rect class="cls-20" y="163.39" width="337" height="10.21"/>
        <rect class="cls-21" y="153.18" width="337" height="10.21"/>
        <rect class="cls-22" y="142.97" width="337" height="10.21"/>
        <rect class="cls-23" y="132.76" width="337" height="10.21"/>
        <rect class="cls-24" y="122.54" width="337" height="10.21"/>
        <rect class="cls-25" y="112.33" width="337" height="10.21"/>
        <rect class="cls-26" y="102.12" width="337" height="10.21"/>
        <rect class="cls-27" y="91.91" width="337" height="10.21"/>
        <rect class="cls-28" y="81.7" width="337" height="10.21"/>
        <rect class="cls-29" y="71.48" width="337" height="10.21"/>
        <rect class="cls-30" y="61.27" width="337" height="10.21"/>
        <rect class="cls-31" y="51.06" width="337" height="10.21"/>
        <rect class="cls-32" y="40.85" width="337" height="10.21"/>
        <rect class="cls-33" y="30.64" width="337" height="10.21"/>
        <rect class="cls-34" y="20.42" width="337" height="10.21"/>
        <rect class="cls-35" y="10.21" width="337" height="10.21"/>
        <rect class="cls-36" width="337" height="10.21"/>
      </g>
      <g class="cls-2">
        <path class="cls-37" d="M176.36,162.73a15.79,15.79,0,0,1-14,1.36,17.06,17.06,0,0,1-9.67-23.37c.65-1.38,1.81-2.52,2.52-3.87a6.06,6.06,0,0,0,.64-2.8c0-2.33-.54-4.68-.35-7,.39-4.67,2.73-8.43,6.24-11.49,4-3.46,8.68-4.33,13.77-4.12a5.06,5.06,0,0,0,3.15-1.08c3.1-2.55,6.42-4.56,10.5-4.87,1.84-.14,2.51-1,2.81-2.75a16.69,16.69,0,0,1,17.84-13.47c1.29.11,2.55.69,3.84.8a3.73,3.73,0,0,0,2.31-.6c2.27-1.61,4.27-3.65,6.67-5,6.12-3.43,12.63-3.64,19.16-1.29,6.74,2.43,11.17,7.33,14,13.78a7,7,0,0,1,.47,2c.58,5.08,1.33,10.16,1.6,15.26a15.9,15.9,0,0,1-2.52,8.66c-2.06,3.6-3.76,7.41-5.74,11.07a22.88,22.88,0,0,1-2.47,3.16,21.85,21.85,0,0,1-9.42,5.7l-8.34.57c-1.57-.56-3.38-.8-4.66-1.75a18.63,18.63,0,0,1-7.06-9.87,1.82,1.82,0,0,0-1.38-1.06c-2.71.37-5.4.91-8.1,1.4l-10.52,1.54-5.79.89-19.44,3.08c.14.86.23,1.54.35,2.21,1.12,6.27,2.28,12.54,3.35,18.82a33.8,33.8,0,0,1,.22,4.07"/>
        <path class="cls-38" d="M237.73,142.83a21.85,21.85,0,0,0,9.42-5.7c5.82-.94,11.6-2.27,17.45-2.72,7.27-.56,13.43,3.94,14.64,11.21,2.38,14.22,4.61,28.46,6.81,42.71a13.71,13.71,0,0,1-11.29,15.3c-4.33.7-8.65,1.49-13,2-2,.24-2.27,1-1.94,2.78.86,4.68,1.59,9.39,2.24,14.11a3.5,3.5,0,0,0,2.13,3c1.74.85,3.35,2,5.05,2.88s2,2.46,2.12,4.12a1.43,1.43,0,0,1-.7,1.1,9.15,9.15,0,0,1-2.33.64q-17.83,2.85-35.66,5.64c-2.41.38-4.84.58-7.26.87L208.19,132.12c2.7-.49,5.39-1,8.1-1.4a1.82,1.82,0,0,1,1.38,1.06,18.63,18.63,0,0,0,7.06,9.88c1.28.95,3.09,1.18,4.66,1.75l11.91,75a16.83,16.83,0,0,0,.32,1.85c.69,2.5,2.14,3.91,4,3.9a4,4,0,0,0,4.22-5l-12.07-76.36m37.5,25.57q-1-6.5-2.06-13c-.7-4.37-3.44-7.7-7.8-7.8-4.69-.11-9.42.88-14.12,1.47-.24,0-.59.76-.56,1.15.11,1.75.27,3.49.54,5.22q2.33,15,4.74,29.92c.38,2.4.91,4.77,1.3,7.16.21,1.29.83,1.58,2.07,1.35,3.33-.61,6.68-1.13,10-1.64,4.2-.64,9-5.31,7.92-11-.78-4.26-1.37-8.54-2-12.82m-54.75,14.84q3.09,19.5,6.18,39a10.33,10.33,0,0,0,.36,1.84c.72,2,2.16,2.76,4.47,2.36a3.45,3.45,0,0,0,3.23-3.69,25.63,25.63,0,0,0-.25-3.91q-5.54-35.2-11.15-70.39c-.4-2.52-1-5-1.57-7.51a2.61,2.61,0,0,0-.75-1.23,4.44,4.44,0,0,0-4.9-.69c-1.59.81-2.26,2.31-1.92,4.47q3.13,19.88,6.29,39.74"/>
        <path class="cls-39" d="M208.19,132.12,225.4,240.77q-20.69,3.31-41.39,6.59c-.58.09-1.74-.19-1.76-.39-.14-1.25-.5-2.82.08-3.75,1.27-2,3.12-3.73,4.58-5.67a4,4,0,0,0,.89-2.62q-5.57-35.85-11.29-71.67a4.53,4.53,0,0,0-.15-.54,33.8,33.8,0,0,0-.22-4.07c-1.07-6.28-2.23-12.55-3.35-18.82-.12-.67-.22-1.35-.35-2.21l19.43-3.08,5.8-.89,10.52-1.54m5.24,52.34-2-12.45q-2.16-13.66-4.33-27.32c-.4-2.5-1.6-3.68-3.69-3.73-3.11-.07-4.92,2.25-4.38,5.65q6.18,39,12.37,78.06c.51,3.2,2.24,4.61,5.06,4.16,2.64-.42,3.64-2.12,3.13-5.33l-6.18-39m-15.25,2.36q-3.16-20-6.33-39.94c-.41-2.56-2-3.76-4.43-3.39-2.85.42-3.81,1.9-3.3,5.13q6.15,38.83,12.3,77.66a8.66,8.66,0,0,0,.36,2c.38.89.77,2.11,1.5,2.46a4.44,4.44,0,0,0,4.64-.1,3.89,3.89,0,0,0,1.55-4.27c-2.15-13.18-4.21-26.37-6.3-39.57"/>
        <path class="cls-40" d="M237.73,142.83l12.07,76.36a4,4,0,0,1-4.22,5c-1.81,0-3.26-1.4-4-3.9a16.77,16.77,0,0,1-.32-1.85l-11.91-75,8.34-.57"/>
        <path class="cls-38" d="M197.67,133.66l-5.8.89,5.8-.89"/>
        <path class="cls-40" d="M220.48,183.25q-3.15-19.87-6.29-39.74c-.34-2.16.33-3.66,1.92-4.47a4.44,4.44,0,0,1,4.9.69,2.61,2.61,0,0,1,.75,1.23c.57,2.49,1.17,5,1.57,7.51q5.61,35.19,11.15,70.39a25.63,25.63,0,0,1,.25,3.91,3.45,3.45,0,0,1-3.23,3.69c-2.32.4-3.75-.34-4.47-2.36a10.33,10.33,0,0,1-.36-1.84q-3.09-19.5-6.18-39"/>
        <path class="cls-41" d="M213.43,184.46l6.18,39c.51,3.22-.49,4.91-3.13,5.34-2.82.45-4.55-1-5.06-4.16q-6.19-39-12.36-78.06c-.54-3.4,1.27-5.72,4.38-5.65,2.09,0,3.29,1.23,3.69,3.73q2.18,13.66,4.33,27.32l2,12.45"/>
        <path class="cls-41" d="M198.18,186.82c2.09,13.19,4.15,26.39,6.3,39.57a3.89,3.89,0,0,1-1.55,4.27,4.44,4.44,0,0,1-4.64.1c-.73-.34-1.12-1.56-1.5-2.46a8.66,8.66,0,0,1-.36-2q-6.15-38.83-12.3-77.66c-.51-3.23.45-4.71,3.3-5.13,2.43-.36,4,.84,4.43,3.39q3.17,20,6.33,39.94"/>
        <path class="cls-39" d="M78.37,202.73a4,4,0,0,0,2.81,5.92c1.75.47,3.51-.52,4.82-2.77a16.73,16.73,0,0,0,.78-1.71l30.61-69.55c1.66-.14,3.47.09,5-.5a18.63,18.63,0,0,0,9.34-7.76,1.82,1.82,0,0,1,1.6-.68c2.53,1,5,2.25,7.48,3.41L96.48,229.8c-2.27-.89-4.57-1.71-6.81-2.68q-16.54-7.22-33.05-14.53a9.18,9.18,0,0,1-2.1-1.21,1.43,1.43,0,0,1-.4-1.24c.5-1.59,1.25-3,3.1-3.45s3.72-1.12,5.62-1.5a3.5,3.5,0,0,0,2.83-2.35c1.83-4.4,3.73-8.77,5.75-13.08.78-1.65.71-2.44-1.17-3.18-4.08-1.6-8.06-3.47-12.07-5.25a13.71,13.71,0,0,1-7-17.67c5.75-13.22,11.53-26.43,17.44-39.58,3-6.72,10.12-9.51,17-7.12,5.54,1.93,10.8,4.68,16.19,7.07a21.86,21.86,0,0,0,7.66,7.91L78.37,202.73M61.45,159c-2.46,5.23,1,11,4.87,12.65,3.11,1.34,6.22,2.7,9.28,4.14,1.15.54,1.81.42,2.35-.78,1-2.22,2.09-4.38,3.07-6.6q6.12-13.85,12.19-27.73c.7-1.6,1.3-3.25,1.85-4.91.12-.37,0-1.16-.25-1.25-4.4-1.76-8.71-3.92-13.28-5-4.25-1-7.74,1.51-9.53,5.56l-5.3,12.06c-1.74,4-3.4,8-5.24,11.88m70.61-20.45c.88-2,.61-3.62-.72-4.81a4.43,4.43,0,0,0-4.92-.58,2.62,2.62,0,0,0-1,1c-1.18,2.27-2.4,4.53-3.43,6.86q-14.38,32.6-28.68,65.24A25.83,25.83,0,0,0,92,210a3.45,3.45,0,0,0,2.19,4.4c2.14,1,3.71.63,4.93-1.15a10.26,10.26,0,0,0,.82-1.69l15.89-36.15Q124,157,132.05,138.58"/>
        <path class="cls-38" d="M150.53,133.26l5.38,2.34,18,7.92c-.35.8-.62,1.43-.9,2-2.68,5.78-5.39,11.55-8,17.35a33.93,33.93,0,0,0-1.24,3.88,4.65,4.65,0,0,0-.29.48q-14.6,33.21-29.14,66.44a4,4,0,0,0,.2,2.76c.92,2.25,2.28,4.34,3,6.65.32,1-.42,2.47-.88,3.64-.07.19-1.26.17-1.8-.07q-19.2-8.41-38.36-16.89L140.75,129.1l9.78,4.16m-44.06,81.31c-1.31,3-.78,4.88,1.67,6,2.61,1.15,4.65.23,5.95-2.73l31.81-72.35c1.38-3.15.22-5.85-2.8-6.58-2-.49-3.5.35-4.52,2.67q-5.58,12.65-11.14,25.32l-5.07,11.54-15.9,36.18m13.9,6.65a3.89,3.89,0,0,0,.42,4.52,4.44,4.44,0,0,0,4.46,1.28c.79-.15,1.48-1.23,2.08-2a8.61,8.61,0,0,0,.86-1.87l31.64-72c1.32-3,.76-4.67-1.88-5.8-2.26-1-4.1-.21-5.15,2.16q-8.14,18.51-16.28,37c-5.37,12.23-10.72,24.46-16.15,36.66"/>
        <path class="cls-41" d="M109.46,132,78.37,202.73a4,4,0,0,0,2.81,5.92c1.75.47,3.51-.52,4.82-2.77a16.51,16.51,0,0,0,.78-1.71l30.61-69.55L109.46,132"/>
        <path class="cls-38" d="M150.53,133.26l5.38,2.34-5.38-2.34"/>
        <path class="cls-41" d="M115.86,175.42Q124,157,132.05,138.58c.88-2,.61-3.62-.71-4.81a4.44,4.44,0,0,0-4.92-.58,2.61,2.61,0,0,0-1,1c-1.18,2.27-2.4,4.53-3.43,6.86q-14.38,32.6-28.68,65.24A25.83,25.83,0,0,0,92,210a3.45,3.45,0,0,0,2.19,4.39c2.14,1,3.71.63,4.93-1.15a10.35,10.35,0,0,0,.82-1.69l15.89-36.15"/>
        <path class="cls-40" d="M122.37,178.39l-15.9,36.18c-1.31,3-.78,4.87,1.67,6,2.61,1.15,4.65.23,5.95-2.73Q130,181.61,145.9,145.44c1.38-3.15.22-5.85-2.8-6.58-2-.49-3.5.35-4.52,2.67q-5.58,12.65-11.14,25.32Z"/>
        <path class="cls-40" d="M136.52,184.55c-5.37,12.23-10.73,24.46-16.15,36.66a3.89,3.89,0,0,0,.42,4.52,4.43,4.43,0,0,0,4.46,1.28c.79-.15,1.48-1.23,2.08-2a8.62,8.62,0,0,0,.86-1.87l31.64-72c1.32-3,.76-4.67-1.89-5.8-2.26-1-4.1-.21-5.14,2.16q-8.15,18.51-16.28,37"/>
        <path class="cls-37" d="M118.34,144.39c13.86,0,27.14-12.19,26.5-26.5s-11.64-26.5-26.5-26.5c-13.86,0-27.14,12.19-26.5,26.5s11.64,26.5,26.5,26.5"/>
        <path class="cls-37" d="M151.43,151c13.86,0,27.14-12.19,26.5-26.5S166.28,98,151.43,98c-13.86,0-27.14,12.19-26.5,26.5s11.64,26.5,26.5,26.5"/>
        <path class="cls-37" d="M161.19,162.21c13.86,0,27.14-12.19,26.5-26.5s-11.64-26.5-26.5-26.5c-13.86,0-27.14,12.19-26.5,26.5s11.64,26.5,26.5,26.5"/>
        <path class="cls-37" d="M146.23,86.07c-5.16-.7-10.84-.84-15.74-2.71L136.82,86a8.27,8.27,0,0,1-1.75-1l5.36,4.14a5.59,5.59,0,0,1-1.33-1.42l4.14,5.36-.45-.89c-8.58-16.89-37.44-17.72-45.76,0l-1.19,2.53c-3.09,6.58-4.67,13.18-2.67,20.42,1.69,6.15,6.45,12.81,12.18,15.84,11.75,6.21,30,3.89,36.26-9.51L142.8,119H97c4.14,8.14,12.74,13.83,21.37,16.17,4.41,1.2,9.22,1.42,13.74,2,7.39,1,13.69,1.27,20.42-2.67,5.5-3.22,10.74-9.52,12.18-15.84,1.55-6.78,1.21-14.4-2.67-20.42-3.45-5.35-9.21-11.28-15.84-12.18"/>
      </g>
    </g>
  </g>
</svg>
