<svg xmlns="http://www.w3.org/2000/svg" viewBox="0 0 1861.84 684.29">
  <defs>
    <style>
      .cls-1 {
        fill: #f3f3f3;
        stroke: #f3f3f3;
      }

      .cls-1, .cls-2 {
        stroke-miterlimit: 10;
        stroke-width: 5px;
      }

      .cls-2 {
        fill: none;
        stroke: #d34e24;
      }

      .cls-3 {
        fill: #d34e24;
      }

      .cls-4 {
        fill: #f64044;
      }
    </style>
  </defs>
  <title>pingpong_2</title>
  <g id="Layer_2" data-name="Layer 2">
    <g id="Layer_1-2" data-name="Layer 1">
      <path class="cls-1" d="M1859.34,634.74c.47-27.54-63.59-51.17-143.09-52.77s-144.33,19.42-144.8,47S1635,680.1,1714.53,681.7,1858.86,662.28,1859.34,634.74Z"/>
      <g>
        <path class="cls-2" d="M1835,251.31c.18-11.08-67.72-21.32-151.68-22.88s-152.16,6.16-152.34,17.24,67.72,21.32,151.68,22.88S1834.86,262.39,1835,251.31Z"/>
        <path class="cls-3" d="M1783.43,624.09c1.45,10-2.63,17-10.75,21-8.82,4.3-17.87,9.18-27.28,10.8-20.68,3.57-41.63,6.89-62.51,7.24-23.27.39-46.85-.85-69.29-8.9a147,147,0,0,1-24.34-11.82c-4.73-2-6.22-8.93-6.22-8.93s-28-232.11-31.68-267.37c-.87-8.38-.67-17.08-2.81-25.08-3.85-14.4-5.09-29.09-6.76-43.79-.59-5.21-1.92-10.32-2.41-15.53a50.44,50.44,0,0,0-3.26-14.84c-2.71-6.78-9.53-13.05-6.15-21.9l36.78,6.57s78.46,7.58,91.3,6.42l51.34-.3,13.22-.45c25.75-1.59,51.51-2.91,77.22-5,11-.88,21.92-3.06,34-5a2.21,2.21,0,0,1,2.34,2.93c-1.18,18.69-7.26,10.56-9.65,32.29-1.21,10.15-2.76,20.25-4.14,30.37-.27,2-14,71.88-16.21,93.8-.44,4.35-.67,8.72-1.21,13.06-1.29,10.54-3.07,21-4,31.59C1799.85,464.55,1783,621,1783.43,624.09Zm35.21-319.56"/>
        <path class="cls-4" d="M1720.63,257.27l-11.24.33Z"/>
      </g>
      <g>
        <circle class="cls-3" cx="202.79" cy="48.03" r="48.03"/>
        <path class="cls-3" d="M126.28,55.58c-11.29,3-22.54,6.63-33.64,10.51S70.56,74.25,59.8,79q-8.08,3.55-16,7.53C38.57,89.18,33.39,92,28.33,95a176.23,176.23,0,0,0-14.77,9.67A126.58,126.58,0,0,0,0,116a126.83,126.83,0,0,1,13.26-11.73A177,177,0,0,1,27.81,94.15C32.8,91,37.93,88,43.14,85.21s10.48-5.49,15.83-8c10.68-5.09,21.6-9.67,32.64-13.92s22.21-8.13,33.61-11.56Z"/>
        <path class="cls-3" d="M119.14,78.46c-7.05,1.83-14.11,4-21.07,6.4s-13.86,5-20.61,7.91c-1.71.7-3.37,1.48-5,2.25s-3.36,1.51-5,2.37l-4.93,2.5-4.81,2.71a99.23,99.23,0,0,0-17.86,13,99.74,99.74,0,0,1,17.33-13.83l4.72-2.95,4.84-2.74c1.6-.94,3.27-1.75,4.91-2.61s3.29-1.72,5-2.5C83.29,87.68,90.13,84.78,97,82s13.88-5.23,21-7.44Z"/>
      </g>
    </g>
  </g>
</svg>
