<svg xmlns="http://www.w3.org/2000/svg" viewBox="0 0 1861.84 684.79"><defs><style>.cls-1{fill:#f3f3f3;stroke:#f3f3f3;}.cls-1,.cls-2,.cls-3,.cls-4{stroke-miterlimit:10;}.cls-1,.cls-2{stroke-width:5px;}.cls-2{fill:none;}.cls-2,.cls-3,.cls-4{stroke:#263860;}.cls-3,.cls-5{fill:#263860;}.cls-4{fill:#f64044;}</style></defs><title>pongblue</title><g id="Layer_2" data-name="Layer 2"><g id="Layer_1-2" data-name="Layer 1"><ellipse class="cls-1" cx="1715.39" cy="632.34" rx="49.87" ry="143.98" transform="translate(1047.89 2334.36) rotate(-88.82)"/><ellipse class="cls-2" cx="1683.04" cy="248.99" rx="20.06" ry="152.03" transform="translate(1402.8 1927.11) rotate(-88.93)"/><path class="cls-3" d="M1783.43,624.59c1.45,10-2.63,17-10.75,21-8.82,4.3-17.87,9.18-27.28,10.8-20.68,3.57-41.63,6.9-62.51,7.24-23.27.39-46.86-.85-69.29-8.9a146.88,146.88,0,0,1-24.34-11.82c-4.73-2-6.22-8.92-6.22-8.92s-28-232.11-31.68-267.38c-.87-8.38-.67-17.08-2.81-25.08-3.84-14.4-5.09-29.09-6.76-43.79-.59-5.21-1.92-10.32-2.4-15.53a50.44,50.44,0,0,0-3.27-14.85c-2.71-6.78-9.53-13-6.14-21.9l36.78,6.57s78.46,7.58,91.29,6.42l51.34-.31,13.22-.45c25.75-1.6,51.51-2.91,77.22-5,11-.88,21.93-3.06,34-5a2.21,2.21,0,0,1,2.34,2.93c-1.19,18.7-7.26,10.56-9.66,32.29-1.21,10.15-2.76,20.25-4.14,30.37-.28,2-14,71.88-16.21,93.8-.44,4.35-.68,8.72-1.21,13.06-1.29,10.53-3.07,21-4,31.59C1799.85,465.05,1783,621.48,1783.43,624.59Z"/><path class="cls-4" d="M1720.63,257.77l-11.24.33Z"/><circle class="cls-3" cx="202.79" cy="48.53" r="48.03"/><path class="cls-5" d="M126.81,58c-5.59,1.4-11.27,3-16.88,4.68S98.72,66.13,93.16,68C82,71.75,71,75.83,60.22,80.43c-5.41,2.28-10.77,4.7-16,7.28S33.68,93,28.59,95.93a175.15,175.15,0,0,0-14.88,9.44A125.76,125.76,0,0,0,0,116.5a124.61,124.61,0,0,1,13.11-11.93A177.23,177.23,0,0,1,27.55,94.22c5-3.25,10.06-6.29,15.24-9.17s10.43-5.65,15.76-8.26c10.64-5.26,21.52-10,32.54-14.42q8.26-3.32,16.65-6.33c5.61-2,11.18-3.95,17-5.75Z"/><path class="cls-5" d="M119.67,80.89c-7,1.65-14.11,3.69-21.08,5.88S84.67,91.4,77.88,94.19c-1.71.65-3.39,1.4-5.07,2.13s-3.38,1.43-5,2.25l-5,2.37L58,103.54a98.15,98.15,0,0,0-18.12,12.55,99.92,99.92,0,0,1,17.07-14.26l4.68-3.06,4.8-2.86c1.59-1,3.24-1.83,4.87-2.74s3.27-1.8,4.94-2.62c6.63-3.44,13.43-6.51,20.31-9.41s13.81-5.56,21-8Z"/></g></g></svg>